<svg id="Слой_1" data-name="Слой 1" xmlns="http://www.w3.org/2000/svg" viewBox="0 0 67.45 45"><title>fitness</title><path d="M29.55,20.36c-.08.16-.42,2.5-.65,4.2-.19,1.39-.4,2.78-.6,4.18H26.73c0-.18,0-.36,0-.53.18-1.26.37-2.53.55-3.79.15-1.06.3-2.13.44-3.19l.38-2.77c0-.29.08-.58.12-.87s.14-.46.51-.49a5.32,5.32,0,0,1,.54,0,.92.92,0,0,1,.78.44c.16.24.31.48.46.72l4.15,6.58c.07.11.15.21.25.35,0-.09,0-.14,0-.19.18-1.21.36-2.42.53-3.63.14-1,.27-2,.41-3,0-.28.07-.57.11-.85a.86.86,0,0,1,0-.19.29.29,0,0,1,.28-.21h1.17c.15,0,.21.08.2.25s0,.4-.08.6l-.42,2.94c-.15,1-.3,2.08-.45,3.12s-.25,1.8-.37,2.7c-.08.59-.16,1.18-.25,1.77,0,.21-.11.28-.32.29h-.68a.48.48,0,0,1-.43-.25L34,27.24l-3.71-5.86c-.2-.31-.42-.6-.63-.9Z" style="fill:#565656"/><path d="M41.31,17h6.12a.19.19,0,0,1,0,.07c-.05.4-.1.8-.16,1.21a.22.22,0,0,1-.22.2H43.33c-.4,0-.43,0-.48.43-.11.79-.22,1.57-.33,2.36a3,3,0,0,0,0,.61h3.07c0,.21-.06.4-.09.59l-.1.62c0,.24-.12.32-.37.33H42.4c-.15,0-.16,0-.18.17l-.15,1L41.72,27c0,.05,0,.1,0,.18H46.3c0,.14,0,.25-.07.37-.06.3-.13.6-.18.89a.27.27,0,0,1-.25.23H39.93c-.21,0-.28-.09-.25-.3.1-.7.2-1.41.3-2.11s.2-1.48.3-2.22.23-1.56.34-2.34L41,19.09c.08-.6.17-1.19.25-1.79C41.27,17.21,41.29,17.13,41.31,17Z" style="fill:#565656"/><path d="M62,29.16a6.77,6.77,0,0,1-3-.68c-.33-.16-.35-.24-.17-.55s.21-.4.32-.6l.07-.14a.27.27,0,0,1,.4-.14l.25.11a5.88,5.88,0,0,0,2.47.53,2.24,2.24,0,0,0,1.49-.52,1.75,1.75,0,0,0,.66-1.5,1.87,1.87,0,0,0-.59-1.23c-.41-.4-.85-.79-1.27-1.18A15.76,15.76,0,0,1,61.3,22a3.4,3.4,0,0,1-.87-1.76A2.88,2.88,0,0,1,62.36,17a6,6,0,0,1,4,.06l.53.21c.22.1.25.18.16.39s-.27.6-.42.89-.15.2-.34.13-.57-.22-.86-.31a4,4,0,0,0-2.09-.09l-.33.1a1.31,1.31,0,0,0-.78,1.83,3.31,3.31,0,0,0,.85,1.1l1.63,1.43a6.11,6.11,0,0,1,1,1.06,3,3,0,0,1,.27,3A3.82,3.82,0,0,1,63.2,29,4.85,4.85,0,0,1,62,29.16Z" style="fill:#565656"/><path d="M57,17.43l-.54,1.15c-.07.14-.11.15-.28.11L55,18.34a4.27,4.27,0,0,0-1.31-.17,2,2,0,0,0-1.35.53A1.24,1.24,0,0,0,52,19.9a2,2,0,0,0,.56,1c.38.37.77.73,1.16,1.09s.93.83,1.38,1.25a3.29,3.29,0,0,1,.7.91,3,3,0,0,1,.07,2.6,3.74,3.74,0,0,1-2.11,2.05,4.85,4.85,0,0,1-2.16.33,6.93,6.93,0,0,1-2.82-.73l-.23-.13a.44.44,0,0,1,0-.08c.18-.34.37-.68.55-1a.22.22,0,0,1,.24-.14l.24,0,1.5.47a3.07,3.07,0,0,0,1.9,0A1.82,1.82,0,0,0,54.32,26a1.69,1.69,0,0,0-.44-1.41c-.25-.28-.52-.54-.79-.8-.6-.58-1.22-1.15-1.82-1.73A3.45,3.45,0,0,1,50.5,21,3,3,0,0,1,52.29,17a5.54,5.54,0,0,1,1.33-.25,6.25,6.25,0,0,1,2.94.48C56.71,17.25,56.84,17.34,57,17.43Z" style="fill:#565656"/><path d="M.37,28.74c.05-.42.1-.82.16-1.23q.19-1.37.38-2.73c.12-.86.25-1.72.38-2.59s.22-1.61.34-2.41L2,17.39s0-.08,0-.12a.22.22,0,0,1,.21-.19H7.48l.37,0c-.06.45-.12.87-.18,1.3a.19.19,0,0,1-.1.13.91.91,0,0,1-.3.05l-3.42,0H3.63L3.14,22H5.82a.41.41,0,0,1,0,.1c0,.36-.07.71-.12,1.07s-.13.36-.43.36H3a.57.57,0,0,0,0,.11q-.16,1.13-.33,2.27c-.12.86-.24,1.73-.36,2.59,0,.21-.1.28-.3.29H.48Z" style="fill:#565656"/><path d="M18.57,28.76,20,18.59c-.24,0-.46,0-.68,0H16.66a1.47,1.47,0,0,1,0-.16l.14-1.07a.26.26,0,0,1,.24-.27,1.21,1.21,0,0,1,.23,0H25l.37,0c0,.07,0,.12,0,.17l-.2,1.07c0,.21-.08.25-.3.25h-3c0,.2-.06.4-.09.59q-.17,1.19-.35,2.37T21,23.94l-.38,2.68-.26,1.86a1,1,0,0,1,0,.14.18.18,0,0,1-.18.14H18.57Z" style="fill:#565656"/><path d="M12.11,28.74h-1.8a1.76,1.76,0,0,1,0-.23q.24-1.76.48-3.51c.16-1.12.32-2.25.48-3.37.18-1.31.36-2.63.54-3.94a3.32,3.32,0,0,1,.07-.35.31.31,0,0,1,.31-.25H13.5c.15,0,.21.08.19.24,0,.36-.1.72-.14,1.08l-.28,2-.34,2.47-.38,2.77-.34,2.48c0,.14,0,.27-.06.41S12.13,28.68,12.11,28.74Z" style="fill:#565656"/></svg>