<?xml version="1.0" encoding="utf-8"?>
<!-- Generator: Adobe Illustrator 21.0.2, SVG Export Plug-In . SVG Version: 6.00 Build 0)  -->
<svg version="1.1" id="Слой_1" xmlns="http://www.w3.org/2000/svg" xmlns:xlink="http://www.w3.org/1999/xlink" x="0px" y="0px"
	 viewBox="0 0 67.4 45" style="enable-background:new 0 0 67.4 45;" xml:space="preserve">
<style type="text/css">
	.st0{fill:#A7A7A7;}
</style>
<title>fortis</title>
<path class="st0" d="M62.2,29.5l-1.3-0.1c0.6-1.1,0.7-1.1,1.7-0.5c0.9,0.5,1.9,0.5,2.8,0c0.3-0.1,0.5-0.4,0.5-0.7
	c0-0.3-0.3-0.5-0.5-0.5c-0.9-0.3-1.9-0.6-2.8-1c-0.7-0.3-1.6-0.5-1.5-1.4s1-1,1.7-1.2c1.4-0.2,2.9-0.2,4.4,0.1
	c-0.5,0.7-0.9,1.1-1.7,0.5c-0.7-0.4-1.6-0.4-2.3,0c-0.2,0.1-0.4,0.2-0.5,0.5c0,0.3,0.2,0.5,0.4,0.6c1,0.4,2,0.7,3,1
	c0.5,0.1,1,0.4,1.4,0.8v0.8c-0.2,0.7-0.8,1.2-1.6,1.2c-0.3,0.1-0.7,0-1,0.2h-1.6C62.9,29.4,62.5,29.6,62.2,29.5z"/>
<path class="st0" d="M0,29.4l0.4-0.2c0.9-0.1,1.8-0.1,2.7,0c0.3,0,0.3,0.2,0.4,0.4H0.3C0.2,29.6-0.1,29.8,0,29.4z"/>
<path class="st0" d="M44.6,29.3c0.3,0,0.3,0.2,0.4,0.4h-3.6c0.1-0.2,0.2-0.4,0.4-0.4C42.8,29.1,43.7,29.1,44.6,29.3z"/>
<path class="st0" d="M55.4,29.3c0.2,0,0.3,0.2,0.4,0.4h-3.6c0.1-0.2,0.2-0.4,0.4-0.4C53.6,29.1,54.5,29.2,55.4,29.3z"/>
<path class="st0" d="M29.4,29.2c0.3,0,0.3,0.2,0.4,0.4h-3.4c0-0.2,0-0.3,0.3-0.4C27.6,29.1,28.5,29.1,29.4,29.2z"/>
<path class="st0" d="M32.8,29.6c0-0.1,0-0.1,0-0.2c0.6-0.6,1.3-0.1,2-0.2c0.3,0,0.3,0.2,0.4,0.4L32.8,29.6z"/>
<path class="st0" d="M3.2,29.3c-0.9,0.3-1.8,0.3-2.7,0C1,29.1,1,28.8,1,28.4c0-1-0.1-1.9,0-2.9c0.1-0.6-0.2-1.3-0.8-1.6h6.1
	c0.4,0,0.7,0,0.7,0.5c0,0.4-0.1,0.6-0.5,0.3c-1-0.7-2.2-0.4-3.3-0.4c-0.9,0-0.5,0.7-0.5,1.1s-0.2,0.8,0.5,0.8c0.9,0.1,1.7,0,2.5-0.4
	c0.2,0.4,0.2,0.8,0,1.2c-0.5-0.3-1.1-0.4-1.6-0.4c-0.5,0.1-1.2-0.3-1.3,0.3c-0.2,0.6-0.2,1.4,0,2C2.8,29.1,3,29.2,3.2,29.3z"/>
<path class="st0" d="M44.6,29.3c-0.9,0.3-1.8,0.3-2.7,0c0.4-0.1,0.6-0.4,0.6-0.8c0-1.1,0-2.3,0-3.5c0-0.5-0.2-0.7-0.7-0.7
	c-0.8,0-1.7,0.2-2.4,0.6c-0.3-0.7-0.2-1,0.7-1c2.1,0,4.3,0,6.4,0c0.7,0,1,0.2,0.7,1c-0.7-0.4-1.6-0.6-2.4-0.6
	c-0.5,0-0.7,0.1-0.7,0.6c0,1.2,0,2.4,0,3.6C44.1,28.9,44.3,29.2,44.6,29.3z"/>
<path class="st0" d="M55.4,29.3c-0.9,0.3-1.8,0.3-2.7,0c0.4-0.1,0.5-0.4,0.5-0.8c0-1.1,0-2.3,0-3.5c0-0.4-0.2-0.8-0.6-1.1h3
	c-0.5,0.2-0.9,0.8-0.7,1.4c0,1,0,2,0,3.1C54.8,28.8,54.9,29.2,55.4,29.3z"/>
<path class="st0" d="M19.8,24.5c-2.2-1.1-4.8-1-6.9,0.2c-1.6,0.9-1.6,2.8,0,3.9c0.9,0.4,1.8,0.8,2.7,1h2.2c0.6-0.4,1.4-0.4,2-0.8
	c0.9-0.4,1.4-1.2,1.5-2.2C21.3,25.8,20.7,24.9,19.8,24.5z M16.5,29.2c-1.3,0.2-2.5-0.8-2.7-2.1c0-0.1,0-0.2,0-0.3
	c0-1.5,1-2.5,2.7-2.5s2.7,0.9,2.7,2.4c0.1,1.3-1,2.4-2.3,2.5C16.8,29.2,16.7,29.2,16.5,29.2z"/>
<path class="st0" d="M31.9,26.9c0.8-0.5,2-0.4,1.9-1.5s-1.2-1-2-1.3h-0.1c-1.7-0.2-3.5-0.3-5.2-0.2c0.3,0.4,0.8,0.5,0.7,1
	c-0.1,1.2,0,2.4,0,3.6c0.1,0.4-0.2,0.7-0.5,0.8l0,0c0.9,0.3,1.8,0.3,2.7,0c-0.4-0.4-0.7-2-0.3-2.2c0.7-0.4,1.2-0.1,1.7,0.5
	s1.3,1.3,2,1.9c0.7-0.1,1.4,0.2,2-0.2C33.8,28.5,32.8,27.8,31.9,26.9z M29.8,26.5c-0.8,0-0.8,0-0.8-1.2c-0.1-0.5,0-1,0.8-0.9
	c1.2,0.1,2.1,0.5,2.2,1.1C32.1,26.1,31.1,26.5,29.8,26.5z"/>
<rect x="19.5" y="19.6" class="st0" width="28.4" height="2.1"/>
<rect x="21.8" y="17.5" class="st0" width="23.9" height="1.7"/>
<rect x="23.1" y="15.8" class="st0" width="21.3" height="1.1"/>
<rect x="32.1" y="14.6" class="st0" width="3.3" height="0.7"/>
</svg>
