<?xml version="1.0" encoding="utf-8"?>
<!-- Generator: Adobe Illustrator 21.0.2, SVG Export Plug-In . SVG Version: 6.00 Build 0)  -->
<svg version="1.1" id="Слой_1" xmlns="http://www.w3.org/2000/svg" xmlns:xlink="http://www.w3.org/1999/xlink" x="0px" y="0px"
	 viewBox="0 0 67.4 45" style="enable-background:new 0 0 67.4 45;" xml:space="preserve">
<style type="text/css">
	.st0{fill:#A7A7A7;}
</style>
<title>goodlifefitness</title>
<path class="st0" d="M15.2,16c0,0.2-0.1,0.4-0.1,0.6c-0.2,1.2-0.4,2.5-0.6,3.8c-0.1,0.4-0.1,0.9-0.2,1.3c0,0.1-0.1,0.3-0.3,0.3
	c-0.6,0.3-1.1,0.5-1.7,0.6c-0.6,0.2-1.2,0.2-1.8,0.3C10,23,9.5,23,9,23c-1.6,0-3.1-0.5-4.2-1.6c-1-1-1.7-2.2-2-3.5
	c-0.2-0.7-0.3-1.4-0.2-2.2c0-0.9,0.2-1.7,0.4-2.5c0.8-2.8,3.1-5,6-5.6c0.5-0.1,1-0.2,1.6-0.2c0.9-0.1,1.9,0,2.8,0.2
	c0.7,0.2,1.4,0.4,2.1,0.7c0.1,0,0.1,0.1,0.2,0.1c0,0.1,0,0.1,0,0.1L15,10c-0.1,0.3-0.1,0.3-0.4,0.2s-0.8-0.3-1.3-0.4
	c-0.5-0.2-1.1-0.3-1.7-0.3c-0.5,0-0.9,0-1.4,0c-0.7,0.1-1.4,0.3-2.1,0.7c-0.9,0.5-1.7,1.3-2.2,2.2c-0.5,0.8-0.8,1.6-0.9,2.5
	C5,15.3,5,15.7,5,16.2c0,1.3,0.5,2.5,1.3,3.4C7,20.4,7.9,21,9,21.1c0.6,0.1,1.3,0,1.9-0.1l0.9-0.2c0.2,0,0.3-0.2,0.3-0.4
	c0.1-0.8,0.2-1.5,0.3-2.3c0-0.2,0-0.3-0.3-0.3h-0.9l0.3-1.7L15.2,16z"/>
<path class="st0" d="M44.2,7L42,22.8h-2.2l0.3-2.3l0,0L40,20.7c-0.3,0.3-0.5,0.7-0.8,1c-0.5,0.5-1,1-1.7,1.2
	c-0.6,0.2-1.2,0.3-1.8,0.1c-0.7-0.2-1.3-0.7-1.5-1.3c-0.2-0.6-0.3-1.2-0.3-1.8c0.1-1.8,0.8-3.6,2-5c0.4-0.5,0.9-0.9,1.4-1.3
	c0.6-0.4,1.3-0.7,2-0.8c0.4-0.1,0.8-0.1,1.2,0h0.3c0.1,0,0.2-0.1,0.2-0.1c0-0.1,0-0.3,0.1-0.4c0.1-0.8,0.2-1.6,0.3-2.3
	s0.2-1.7,0.3-2.5c0-0.1,0-0.1,0-0.2S42,7,42.1,7H44.2z M39.8,14.3c-0.6,0-1.1,0.2-1.5,0.7c-0.7,0.7-1.2,1.5-1.5,2.5
	c-0.2,0.7-0.4,1.4-0.5,2.1c-0.1,0.4,0,0.8,0.1,1.2c0.1,0.3,0.4,0.5,0.7,0.4c0.1,0,0.1,0,0.2-0.1c0.2-0.1,0.4-0.2,0.5-0.3
	c0.5-0.5,1-1,1.3-1.6c0.5-0.8,1-1.6,1.5-2.5c0-0.1,0.1-0.2,0.1-0.3c0.1-0.5,0.1-1,0.2-1.5c0-0.3,0-0.3-0.3-0.4
	C40.3,14.4,40.1,14.3,39.8,14.3z"/>
<path class="st0" d="M33.8,39.9H0.6c-0.1,0-0.3,0-0.4,0c-0.2,0-0.2-0.1-0.2-0.2c0-0.1,0-0.1,0-0.2c0-0.2,0.1-0.3,0.3-0.3
	c0,0,0,0,0,0c0.1,0,0.3,0,0.4,0h66.5c0.2,0,0.3,0.2,0.3,0.3c0,0,0,0.1,0,0.1c0,0.2-0.1,0.3-0.3,0.3L33.8,39.9L33.8,39.9z"/>
<path class="st0" d="M24.5,17.3c0,1.1-0.4,2.3-1,3.2c-0.4,0.6-0.8,1.1-1.4,1.5c-0.7,0.5-1.5,0.8-2.3,0.9c-0.5,0.1-1.1,0.1-1.7,0
	c-0.7-0.2-1.3-0.5-1.8-1c-0.7-0.7-1.2-1.6-1.2-2.6c-0.1-1.3,0.2-2.7,0.8-3.9c0.4-0.8,1-1.5,1.8-1.9c0.6-0.4,1.2-0.7,1.9-0.8
	c0.8-0.2,1.6-0.1,2.3,0.2c0.5,0.2,1,0.5,1.4,0.9c0.5,0.5,0.9,1.2,1,1.9C24.5,16.3,24.6,16.8,24.5,17.3z M17.5,18.8
	c0,0.5,0,0.9,0.1,1.4c0.1,0.5,0.4,0.9,0.9,1.1c0.7,0.3,1.5,0.1,2-0.4c0.6-0.6,1-1.2,1.2-2c0.1-0.5,0.2-1,0.3-1.5c0-0.3,0-0.5,0-0.8
	c0-0.1,0-0.3-0.1-0.4c-0.1-0.4-0.2-0.8-0.4-1.1c-0.2-0.3-0.5-0.6-0.8-0.6c-0.7-0.2-1.5,0.1-2,0.7c-0.3,0.4-0.6,0.8-0.8,1.3
	C17.6,17.1,17.5,18,17.5,18.8L17.5,18.8z"/>
<path class="st0" d="M28.6,23.1c-0.8,0-1.5-0.2-2.1-0.6c-0.7-0.4-1.3-1.1-1.6-1.9c-0.3-0.8-0.4-1.7-0.2-2.5c0.1-0.7,0.3-1.4,0.5-2
	c0.5-1.1,1.2-2,2.3-2.6c0.6-0.4,1.3-0.6,2-0.6c0.5-0.1,1.1,0,1.6,0.1c1.3,0.3,2.3,1.3,2.7,2.5c0.3,0.9,0.4,1.8,0.2,2.7
	c-0.1,1-0.5,2-1.2,2.8c-0.4,0.5-0.8,0.9-1.3,1.3c-0.6,0.4-1.2,0.7-1.9,0.9C29.2,23,28.9,23,28.6,23.1z M31.6,16.8c0-0.1,0-0.3,0-0.5
	c0-0.4-0.2-0.9-0.4-1.2c-0.2-0.4-0.5-0.6-0.9-0.7c-0.6-0.1-1.2,0.1-1.7,0.5c-0.4,0.4-0.8,0.9-1,1.4c-0.4,0.9-0.6,1.9-0.5,2.9
	c0,0.4,0.1,0.8,0.2,1.3c0.2,0.6,0.8,1,1.5,1c0.7,0,1.3-0.3,1.7-0.9c0.3-0.4,0.5-0.8,0.7-1.3C31.4,18.5,31.6,17.7,31.6,16.8
	L31.6,16.8z"/>
<path class="st0" d="M30.5,28.4c-0.1,0.1-0.4,2.3-0.6,3.9c-0.2,1.3-0.4,2.6-0.5,3.9h-1.5c0-0.2,0-0.3,0-0.5c0.2-1.2,0.3-2.3,0.5-3.5
	c0.1-1,0.3-2,0.4-3l0.4-2.6c0-0.3,0.1-0.5,0.1-0.8s0.1-0.4,0.5-0.5c0.2,0,0.3,0,0.5,0c0.3,0,0.6,0.2,0.7,0.4
	c0.1,0.2,0.3,0.5,0.4,0.7l3.8,6.1c0.1,0.1,0.1,0.2,0.2,0.3c0-0.1,0-0.1,0-0.2c0.2-1.1,0.3-2.2,0.5-3.4c0.1-0.9,0.3-1.9,0.4-2.8
	c0-0.3,0.1-0.5,0.1-0.8c0-0.1,0-0.1,0-0.2c0-0.1,0.1-0.2,0.3-0.2h1.1c0.1,0,0.2,0.1,0.2,0.2s0,0.4-0.1,0.6l-0.4,2.7
	c-0.1,1-0.3,1.9-0.4,2.9s-0.2,1.7-0.3,2.5c-0.1,0.5-0.2,1.1-0.2,1.6c0,0.2-0.1,0.3-0.3,0.3h-0.6c-0.2,0-0.3-0.1-0.4-0.2l-0.8-1.2
	L31,29.3C30.8,29,30.6,28.8,30.5,28.4L30.5,28.4z"/>
<path class="st0" d="M53.8,22.8L54,22c0.2-0.9,0.4-1.7,0.5-2.6c0.1-1,0.3-1.9,0.4-2.9c0.1-0.6,0.2-1.2,0.3-1.8c0,0,0-0.1,0-0.1H55
	h-1.5c0-0.1,0-0.1,0-0.1c0.1-0.4,0.2-0.8,0.3-1.3c0-0.2,0.2-0.3,0.3-0.3c0,0,0,0,0,0h1c0.3,0,0.3,0,0.3-0.3c0.1-0.7,0.2-1.4,0.4-2.1
	c0.1-0.7,0.4-1.4,0.8-2.1C57,7.8,57.6,7.3,58.4,7c0.3-0.1,0.6-0.2,0.9-0.2c0.5,0,0.9,0,1.4,0c0.2,0,0.5,0,0.7,0.1S61.8,6.9,62,7
	l-0.4,1.7L61,8.6c-0.2,0-0.5-0.1-0.7-0.1c-0.9,0-1.7,0.5-2,1.4c-0.1,0.4-0.2,0.9-0.3,1.3c-0.1,0.5-0.2,1-0.3,1.5c0,0.1,0,0.1,0,0.2
	c0.3,0,0.7,0,1,0h1l-0.2,0.9c0,0.2-0.1,0.3-0.1,0.5c0,0.2-0.2,0.3-0.4,0.3c0,0,0,0,0,0h-1.6c0,0.2-0.1,0.4-0.1,0.7
	c-0.1,0.8-0.2,1.7-0.4,2.5c-0.2,1.3-0.4,2.6-0.7,3.9c-0.1,0.3-0.1,0.6-0.2,0.8c0,0.2-0.2,0.3-0.4,0.3H54
	C53.9,22.8,53.8,22.8,53.8,22.8z"/>
<path class="st0" d="M64.7,19.7l0.6,0.6l0.2,0.2c0.1,0.1,0.2,0.2,0,0.4s-0.4,0.5-0.7,0.7c-0.4,0.4-0.9,0.7-1.4,1
	C63,22.8,62.3,23,61.7,23c-0.6,0-1.2-0.1-1.7-0.3c-0.8-0.4-1.4-1-1.6-1.8C58.1,20.4,58,20,58,19.5c-0.1-0.7,0-1.5,0.2-2.2
	c0.5-1.7,1.7-3.2,3.3-4c0.5-0.3,1-0.4,1.5-0.5c0.7-0.1,1.4,0,2,0.4c0.6,0.3,0.9,0.9,0.9,1.5c0,0.8-0.2,1.5-0.8,2.1
	c-0.5,0.5-1.1,1-1.8,1.3c-0.7,0.3-1.4,0.5-2.2,0.7l-0.7,0.1c-0.1,0-0.2,0.1-0.2,0.2c-0.1,0.6,0,1.3,0.3,1.8c0.2,0.3,0.4,0.5,0.8,0.5
	c0.6,0.1,1.1,0,1.6-0.3c0.4-0.2,0.8-0.5,1.2-0.9L64.7,19.7z M60.6,17.2L60.6,17.2c0.7-0.1,1.4-0.3,1.9-0.7c0.4-0.2,0.7-0.5,1-0.9
	c0.2-0.3,0.3-0.7,0.3-1.1c0-0.2-0.2-0.3-0.3-0.3c0,0,0,0,0,0c-0.3,0-0.5,0-0.8,0.2c-0.3,0.1-0.5,0.3-0.7,0.5c-0.4,0.4-0.8,0.9-1,1.5
	C60.8,16.7,60.7,16.9,60.6,17.2L60.6,17.2z"/>
<path class="st0" d="M42.9,22.8l0.1-1l0.3-2.1l0.3-2.6l0.3-2.3l0.3-2.5l0.3-2.5l0.3-2c0-0.2,0-0.4,0.1-0.6S45.2,7,45.4,7h1.8
	c0.2,0,0.2,0.1,0.2,0.2s0,0.2,0,0.4c-0.1,1-0.3,2-0.4,3c-0.1,0.9-0.2,1.7-0.3,2.6s-0.3,2-0.4,3s-0.3,2.1-0.4,3.2
	c-0.1,0.4-0.1,0.8-0.2,1.2c0,0.1,0,0.1,0,0.3h0.2h3.5L49,22.8H42.9z"/>
<path class="st0" d="M41.4,25.3H47c0,0,0,0,0,0.1c0,0.4-0.1,0.7-0.2,1.1c0,0.1-0.1,0.2-0.2,0.2h-3.4c-0.4,0-0.4,0-0.5,0.4
	c-0.1,0.7-0.2,1.5-0.3,2.2c0,0.2,0,0.4,0,0.6h2.8l-0.1,0.5l-0.1,0.6c0,0.2-0.1,0.3-0.3,0.3h-2.4c-0.1,0-0.2,0-0.2,0.1l-0.1,0.9
	l-0.3,2.2c0,0,0,0.1,0,0.2H46L45.9,35c-0.1,0.3-0.1,0.5-0.2,0.8c0,0.1-0.1,0.2-0.2,0.2h-5.4c-0.2,0-0.3-0.1-0.2-0.3
	c0.1-0.7,0.2-1.3,0.3-2s0.2-1.4,0.3-2s0.2-1.4,0.3-2.2l0.3-2.4l0.2-1.7C41.3,25.5,41.4,25.4,41.4,25.3z"/>
<path class="st0" d="M60.5,36.5c-1,0-1.9-0.2-2.8-0.6c-0.3-0.1-0.3-0.2-0.2-0.5s0.2-0.4,0.3-0.5l0.1-0.1c0-0.1,0.2-0.2,0.3-0.2
	c0,0,0,0,0.1,0l0.2,0.1c0.7,0.3,1.5,0.5,2.3,0.5c0.5,0,1-0.2,1.4-0.5c0.4-0.3,0.6-0.8,0.6-1.4c0-0.4-0.2-0.8-0.5-1.1
	c-0.4-0.4-0.8-0.7-1.2-1.1c-0.4-0.4-0.8-0.8-1.2-1.2c-0.4-0.4-0.7-1-0.8-1.6c-0.2-1.3,0.5-2.6,1.8-3c1.2-0.4,2.5-0.4,3.7,0.1
	l0.5,0.2c0.2,0.1,0.2,0.2,0.2,0.4s-0.3,0.5-0.4,0.8s-0.1,0.2-0.3,0.1s-0.5-0.2-0.8-0.3c-0.6-0.2-1.3-0.2-1.9-0.1l-0.3,0.1
	c-0.6,0.2-1,0.9-0.8,1.5c0,0.1,0,0.1,0.1,0.2c0.2,0.4,0.5,0.7,0.8,1l1.5,1.3c0.4,0.3,0.7,0.6,0.9,1c0.6,0.8,0.7,1.9,0.3,2.8
	c-0.5,1.1-1.4,1.8-2.6,2C61.3,36.5,60.9,36.5,60.5,36.5z"/>
<path class="st0" d="M55.9,25.7l-0.5,1.1c-0.1,0.1-0.1,0.1-0.3,0.1L54,26.5c-0.4-0.1-0.8-0.2-1.2-0.1c-0.5,0-0.9,0.2-1.3,0.5
	c-0.3,0.3-0.4,0.7-0.3,1.1c0.1,0.4,0.3,0.7,0.5,1c0.3,0.4,0.7,0.7,1.1,1s0.9,0.8,1.3,1.2c0.3,0.2,0.5,0.5,0.6,0.8
	c0.4,0.7,0.4,1.6,0.1,2.4c-0.4,0.9-1.1,1.6-2,1.9c-0.6,0.3-1.3,0.4-2,0.3c-0.9,0-1.8-0.3-2.6-0.7L48,35.8c0,0,0-0.1,0-0.1
	c0.2-0.3,0.3-0.6,0.5-1c0-0.1,0.1-0.1,0.2-0.1H49l1.4,0.4c0.6,0.2,1.2,0.2,1.8,0c0.7-0.2,1.1-0.7,1.2-1.4c0.1-0.5-0.1-1-0.4-1.3
	c-0.2-0.3-0.5-0.5-0.7-0.7c-0.6-0.5-1.1-1.1-1.7-1.6c-0.3-0.3-0.5-0.6-0.7-1c-0.6-1.4,0-3,1.4-3.6c0.1,0,0.2-0.1,0.3-0.1
	c0.4-0.1,0.8-0.2,1.3-0.2c0.9-0.1,1.9,0.1,2.7,0.5C55.6,25.5,55.7,25.6,55.9,25.7z"/>
<path class="st0" d="M3.5,36.2c0-0.4,0.1-0.8,0.2-1.1c0.1-0.8,0.2-1.7,0.4-2.5c0.1-0.8,0.2-1.6,0.3-2.4s0.2-1.5,0.3-2.2L5,25.7
	c0,0,0-0.1,0-0.1c0-0.1,0.1-0.2,0.2-0.2h4.9h0.4c-0.1,0.4-0.1,0.8-0.2,1.2c0,0.1,0,0.1-0.1,0.1c-0.1,0-0.2,0-0.3,0H6.7H6.6l-0.4,3.1
	h2.5c0,0,0,0.1,0,0.1c0,0.3-0.1,0.7-0.1,1s-0.1,0.3-0.4,0.3H6c0,0,0,0.1,0,0.1c-0.1,0.7-0.2,1.4-0.3,2.1c-0.1,0.8-0.2,1.6-0.3,2.4
	c0,0.2-0.1,0.3-0.3,0.3H3.7L3.5,36.2z"/>
<path class="st0" d="M20.4,36.2l1.3-9.4c-0.2,0-0.4,0-0.6,0h-2.5c0,0,0-0.1,0-0.1l0.1-1c0-0.1,0.1-0.2,0.2-0.3h7.4h0.3
	c0,0.1,0,0.1,0,0.2l-0.2,1c0,0.2-0.1,0.2-0.3,0.2h-2.8c0,0.2-0.1,0.4-0.1,0.5L23,29.5l-0.3,2.2l-0.4,2.5l-0.2,1.7
	c0,0-0.1,0.1-0.1,0.1c0,0.1-0.1,0.1-0.2,0.1L20.4,36.2L20.4,36.2z"/>
<path class="st0" d="M49.6,22.8l0.1-0.8l0.3-2.3c0.1-0.7,0.2-1.5,0.3-2.2c0.1-0.7,0.2-1.3,0.3-2l0.3-2.3C51,13,51,13,51.2,13H53
	c0.2,0,0.2,0.1,0.2,0.2s-0.1,0.6-0.1,0.9l-0.4,2.5l-0.4,2.7L52,21.8c0,0.2-0.1,0.5-0.1,0.7c0,0.1-0.1,0.3-0.3,0.3c0,0,0,0,0,0
	L49.6,22.8L49.6,22.8z"/>
<path class="st0" d="M14.4,36.1h-1.7c0-0.1,0-0.1,0-0.2c0.1-1.1,0.3-2.2,0.4-3.3c0.1-1,0.3-2.1,0.4-3.1c0.2-1.2,0.3-2.4,0.5-3.6
	c0-0.1,0-0.2,0.1-0.3c0-0.1,0.1-0.2,0.3-0.2h1.2c0.1,0,0.2,0.1,0.2,0.2c0,0.3-0.1,0.7-0.1,1l-0.3,1.9l-0.3,2.3l-0.4,2.6l-0.3,2.3
	c0,0.1,0,0.3-0.1,0.4S14.4,36.1,14.4,36.1z"/>
<path class="st0" d="M52.5,10.5c-0.6,0-1.2-0.5-1.2-1.1c0-0.1,0-0.2,0-0.3c0.1-0.6,0.6-1.1,1.3-1.3c0.5-0.1,1,0.2,1.2,0.7
	c0.2,0.5,0.1,1-0.2,1.4C53.4,10.3,53,10.5,52.5,10.5z"/>
<path class="st0" d="M66.6,35.8c0,0.4-0.3,0.7-0.7,0.7s-0.7-0.3-0.7-0.7c0-0.4,0.3-0.7,0.7-0.7C66.3,35.1,66.6,35.4,66.6,35.8
	L66.6,35.8z M66.5,35.8c0-0.3-0.3-0.6-0.6-0.6c0,0,0,0,0,0c-0.3,0-0.6,0.2-0.6,0.6s0.2,0.6,0.6,0.6c0,0,0,0,0,0
	C66.2,36.3,66.5,36.1,66.5,35.8C66.5,35.8,66.5,35.8,66.5,35.8z"/>
<path class="st0" d="M65.8,35.9v0.2h-0.2v-0.7c0.1,0,0.2,0,0.4,0c0.1,0,0.2,0.1,0.2,0.2c0,0,0,0.1,0,0.1l-0.1,0.1l0.2,0.3
	c-0.2,0-0.2,0-0.2-0.1S66,35.8,65.8,35.9z M66,35.7c0-0.1,0-0.1-0.1-0.1c0,0,0,0,0,0c-0.1,0-0.1,0-0.1,0.1s0,0.1,0.1,0.1
	C65.9,35.7,66,35.7,66,35.7L66,35.7z"/>
</svg>
