<svg id="Слой_1" data-name="Слой 1" xmlns="http://www.w3.org/2000/svg" viewBox="0 0 67.45 45"><title>goodlifefitness</title><path d="M15.17,16.05c0,.21-.05.4-.08.6q-.27,1.87-.55,3.75c-.06.43-.15.86-.21,1.29a.39.39,0,0,1-.25.33,11.36,11.36,0,0,1-1.73.65,9.93,9.93,0,0,1-1.81.29c-.51,0-1,.09-1.54.09a6,6,0,0,1-4.21-1.56,6.93,6.93,0,0,1-2-3.54,7.32,7.32,0,0,1-.23-2.17A10.61,10.61,0,0,1,3,13.25,7.94,7.94,0,0,1,9,7.7a11,11,0,0,1,1.56-.18,10.86,10.86,0,0,1,2.8.21,10.22,10.22,0,0,1,2.07.68,2,2,0,0,1,.2.12c0,.05,0,.09,0,.13L15,10c-.13.3-.14.3-.44.19s-.83-.31-1.25-.44a8.32,8.32,0,0,0-1.66-.3,6.94,6.94,0,0,0-1.37,0,4.88,4.88,0,0,0-2.06.68A6.48,6.48,0,0,0,6,12.34a7,7,0,0,0-.89,2.48A6.37,6.37,0,0,0,5,16.2,5.63,5.63,0,0,0,6.3,19.62,4.09,4.09,0,0,0,9,21.09a5.05,5.05,0,0,0,1.87-.14l.93-.23a.36.36,0,0,0,.34-.37q.15-1.14.29-2.28c0-.2,0-.28-.25-.28h-.91l.27-1.72Z" style="fill:#565656"/><path d="M44.2,7,42,22.82H39.77l.3-2.29,0,0-.12.14c-.27.33-.53.67-.81,1a4.27,4.27,0,0,1-1.69,1.22,3,3,0,0,1-1.76.13,2,2,0,0,1-1.47-1.34,4.27,4.27,0,0,1-.27-1.76,8.17,8.17,0,0,1,2-5,6.59,6.59,0,0,1,1.44-1.26,5.27,5.27,0,0,1,2-.8,4.41,4.41,0,0,1,1.24,0l.3,0a.17.17,0,0,0,.18-.14c0-.12.05-.25.07-.37.11-.78.22-1.56.32-2.35s.21-1.69.32-2.53c0-.06,0-.12,0-.18S42,7,42.12,7H44.2Zm-4.39,7.31a2,2,0,0,0-1.49.66,7,7,0,0,0-1.52,2.46,10.69,10.69,0,0,0-.49,2.06,2.47,2.47,0,0,0,.1,1.2.55.55,0,0,0,.81.36,2.37,2.37,0,0,0,.53-.33,8.35,8.35,0,0,0,1.35-1.56,19.2,19.2,0,0,0,1.45-2.52.84.84,0,0,0,.07-.25c.07-.5.13-1,.2-1.49,0-.25,0-.34-.25-.43A2.43,2.43,0,0,0,39.81,14.31Z" style="fill:#565656"/><path d="M33.81,39.93H.62a2.74,2.74,0,0,1-.4,0c-.15,0-.21-.09-.22-.24a1,1,0,0,1,0-.17.33.33,0,0,1,.32-.34,3.94,3.94,0,0,1,.43,0H67.27a.33.33,0,0,1,.3.35.87.87,0,0,1,0,.13.3.3,0,0,1-.29.29H33.81Z" style="fill:#565656"/><path d="M24.55,17.34a6.1,6.1,0,0,1-1,3.22,5.71,5.71,0,0,1-1.36,1.5,4.88,4.88,0,0,1-2.31.93,4.77,4.77,0,0,1-1.66,0A3.74,3.74,0,0,1,16.4,22a3.79,3.79,0,0,1-1.22-2.57A7,7,0,0,1,16,15.56a5.29,5.29,0,0,1,1.77-1.94,5.08,5.08,0,0,1,1.92-.82A4.18,4.18,0,0,1,22,13a4,4,0,0,1,1.4.87,3.91,3.91,0,0,1,1,1.91A6.76,6.76,0,0,1,24.55,17.34Zm-7,1.48a6.25,6.25,0,0,0,.14,1.38,1.53,1.53,0,0,0,.86,1.09,1.93,1.93,0,0,0,2-.37,4.62,4.62,0,0,0,1.17-2,7.83,7.83,0,0,0,.3-1.51,2.81,2.81,0,0,0,0-.77c0-.15,0-.29-.06-.44a3.46,3.46,0,0,0-.36-1.15,1.19,1.19,0,0,0-.83-.65,2,2,0,0,0-2,.66,4.94,4.94,0,0,0-.82,1.28A5.68,5.68,0,0,0,17.59,18.83Z" style="fill:#565656"/><path d="M28.56,23.06a4.23,4.23,0,0,1-2.15-.59,3.54,3.54,0,0,1-1.56-1.93A5.3,5.3,0,0,1,24.61,18a7.21,7.21,0,0,1,.53-2,5.65,5.65,0,0,1,2.25-2.6,4.78,4.78,0,0,1,2-.65,4.16,4.16,0,0,1,1.59.09,3.75,3.75,0,0,1,2.67,2.49,5.76,5.76,0,0,1,.24,2.68,6.07,6.07,0,0,1-1.17,2.81,5.53,5.53,0,0,1-1.28,1.3A4.72,4.72,0,0,1,29.5,23C29.19,23,28.88,23,28.56,23.06Zm3-6.23c0-.11,0-.29,0-.46a3.16,3.16,0,0,0-.37-1.24,1.29,1.29,0,0,0-.94-.72,2,2,0,0,0-1.69.48,3.83,3.83,0,0,0-1,1.39,6.48,6.48,0,0,0-.53,2.9,4,4,0,0,0,.23,1.25,1.46,1.46,0,0,0,1.45,1,2.1,2.1,0,0,0,1.7-.85,5.43,5.43,0,0,0,.7-1.25A6.81,6.81,0,0,0,31.55,16.83Z" style="fill:#565656"/><path d="M30.51,28.4c-.07.15-.39,2.31-.6,3.88-.17,1.28-.37,2.57-.55,3.86H27.91c0-.17,0-.33,0-.49.17-1.17.34-2.34.51-3.51.14-1,.27-2,.41-3l.35-2.56c0-.27.07-.54.11-.8s.12-.42.47-.46a4.91,4.91,0,0,1,.5,0,.85.85,0,0,1,.72.4c.15.22.29.45.43.67l3.83,6.08c.06.1.14.19.23.32,0-.09,0-.13,0-.18.16-1.12.33-2.24.49-3.36.13-.92.25-1.85.38-2.77,0-.26.07-.53.1-.79a.8.8,0,0,1,0-.18.27.27,0,0,1,.26-.19h1.08c.14,0,.2.08.18.23s0,.37-.07.56l-.39,2.72c-.14,1-.28,1.92-.42,2.88s-.23,1.66-.34,2.49c-.08.55-.15,1.09-.23,1.64,0,.2-.1.26-.29.27h-.63a.45.45,0,0,1-.39-.23l-.75-1.17-3.43-5.41c-.18-.28-.39-.55-.58-.83Z" style="fill:#565656"/><path d="M53.78,22.78,54,22a18,18,0,0,0,.55-2.6c.14-1,.25-1.9.37-2.86.08-.6.17-1.19.25-1.79,0,0,0-.08,0-.13l-.2,0H53.43c0-.06,0-.1,0-.14.11-.42.21-.83.32-1.25a.3.3,0,0,1,.34-.27h1c.31,0,.25,0,.31-.27.12-.69.23-1.39.37-2.09a6.13,6.13,0,0,1,.79-2.06A3.59,3.59,0,0,1,58.41,7a4,4,0,0,1,.92-.21,6.74,6.74,0,0,1,1.4,0c.24,0,.48,0,.72.07s.34.08.53.13l-.38,1.66L61,8.6a5.54,5.54,0,0,0-.72-.09,2,2,0,0,0-2,1.42,8.84,8.84,0,0,0-.32,1.33c-.09.51-.17,1-.25,1.53,0,.05,0,.11,0,.18.35,0,.69,0,1,0h1l-.22.91c0,.16-.08.31-.12.46a.36.36,0,0,1-.41.31H57.4c0,.23-.07.44-.1.66-.12.84-.24,1.68-.36,2.52-.18,1.3-.4,2.59-.65,3.88a6.7,6.7,0,0,1-.23.83.37.37,0,0,1-.41.28H54A.37.37,0,0,1,53.78,22.78Z" style="fill:#565656"/><path d="M64.74,19.66l.6.59.22.23c.14.15.15.22,0,.38s-.43.46-.65.68a5.78,5.78,0,0,1-1.37,1,4.36,4.36,0,0,1-1.87.49,3.72,3.72,0,0,1-1.74-.33,3.11,3.11,0,0,1-1.63-1.82A4.78,4.78,0,0,1,58,19.53a6.17,6.17,0,0,1,.21-2.21,6.46,6.46,0,0,1,3.31-4A4.6,4.6,0,0,1,63,12.79a3,3,0,0,1,2,.35,1.85,1.85,0,0,1,.93,1.54,2.76,2.76,0,0,1-.76,2.07A5.28,5.28,0,0,1,63.4,18a11.29,11.29,0,0,1-2.19.7l-.71.14a.17.17,0,0,0-.16.16,3,3,0,0,0,.25,1.82,1,1,0,0,0,.78.55A2.65,2.65,0,0,0,63,21.06a5,5,0,0,0,1.2-.87Zm-4.12-2.48h.08a5.73,5.73,0,0,0,1.84-.68,3.28,3.28,0,0,0,1-.86,1.44,1.44,0,0,0,.27-1.1.32.32,0,0,0-.34-.3,1.68,1.68,0,0,0-.79.16,3.32,3.32,0,0,0-.74.53,4.71,4.71,0,0,0-1,1.47C60.84,16.67,60.74,16.92,60.63,17.19Z" style="fill:#565656"/><path d="M42.9,22.79l.14-1,.29-2.08.35-2.56L44,14.87l.35-2.52.35-2.46.28-2c0-.21.05-.42.08-.62s.1-.29.32-.29h1.82c.17,0,.21.06.2.23s0,.24,0,.36q-.21,1.52-.42,3c-.12.86-.23,1.73-.35,2.59s-.28,2-.41,3-.29,2.14-.43,3.22c-.06.41-.12.82-.18,1.23,0,.08,0,.15,0,.25l.22,0h3.54L49,22.79Z" style="fill:#565656"/><path d="M41.39,25.33H47a.17.17,0,0,1,0,.06c0,.37-.1.74-.15,1.11a.2.2,0,0,1-.2.19H43.25c-.37,0-.4,0-.45.39-.1.73-.21,1.45-.31,2.18a2.78,2.78,0,0,0,0,.56H45.3l-.08.54-.09.57c0,.22-.11.29-.34.3h-2.4c-.14,0-.15,0-.17.15l-.14.95-.32,2.16s0,.1,0,.17H46l-.06.34c-.06.28-.12.55-.17.83a.25.25,0,0,1-.23.22H40.11c-.19,0-.25-.08-.23-.28.09-.65.19-1.3.28-1.95s.18-1.37.28-2,.21-1.44.31-2.16l.35-2.44.23-1.66C41.34,25.49,41.37,25.42,41.39,25.33Z" style="fill:#565656"/><path d="M60.48,36.53a6.25,6.25,0,0,1-2.75-.63c-.3-.14-.32-.22-.16-.51s.2-.37.3-.55l.07-.13a.25.25,0,0,1,.37-.13l.23.1a5.43,5.43,0,0,0,2.28.49,2.07,2.07,0,0,0,1.38-.48,1.62,1.62,0,0,0,.61-1.38,1.73,1.73,0,0,0-.55-1.14c-.38-.37-.78-.73-1.18-1.09a14.56,14.56,0,0,1-1.22-1.16,3.14,3.14,0,0,1-.8-1.62,2.66,2.66,0,0,1,1.79-3,5.51,5.51,0,0,1,3.67.06l.49.19c.2.09.23.17.15.36s-.25.55-.39.82-.14.19-.32.12-.52-.21-.79-.28a3.73,3.73,0,0,0-1.93-.08l-.3.09a1.21,1.21,0,0,0-.72,1.69,3.06,3.06,0,0,0,.78,1L63,30.6a5.65,5.65,0,0,1,.94,1,2.74,2.74,0,0,1,.25,2.79,3.53,3.53,0,0,1-2.56,2.05A4.48,4.48,0,0,1,60.48,36.53Z" style="fill:#565656"/><path d="M55.88,25.69l-.5,1.06c-.06.13-.1.14-.26.1L54,26.53a4,4,0,0,0-1.21-.15,1.83,1.83,0,0,0-1.25.49A1.15,1.15,0,0,0,51.25,28a1.83,1.83,0,0,0,.52.95c.35.35.71.67,1.08,1s.86.76,1.28,1.16a3,3,0,0,1,.64.84,2.75,2.75,0,0,1,.07,2.4,3.46,3.46,0,0,1-2,1.9,4.48,4.48,0,0,1-2,.3,6.4,6.4,0,0,1-2.61-.68l-.21-.12a.41.41,0,0,1,0-.08c.17-.32.34-.63.5-1a.21.21,0,0,1,.23-.13l.23,0,1.39.44a2.83,2.83,0,0,0,1.76,0,1.68,1.68,0,0,0,1.23-1.4,1.56,1.56,0,0,0-.4-1.3c-.23-.26-.48-.5-.73-.74-.56-.53-1.13-1.06-1.68-1.6a3.18,3.18,0,0,1-.71-1,2.74,2.74,0,0,1,1.65-3.74A5.12,5.12,0,0,1,52.76,25a5.78,5.78,0,0,1,2.72.45C55.61,25.53,55.74,25.61,55.88,25.69Z" style="fill:#565656"/><path d="M3.55,36.15c.05-.39.09-.76.15-1.13q.17-1.26.35-2.52c.11-.8.23-1.59.35-2.39s.21-1.49.31-2.23L5,25.66s0-.08,0-.11a.2.2,0,0,1,.19-.17h4.89l.35,0c-.06.42-.11.81-.17,1.2a.18.18,0,0,1-.09.12.84.84,0,0,1-.27.05l-3.16,0H6.56L6.11,29.9H8.59a.38.38,0,0,1,0,.09c0,.33-.06.66-.11,1s-.12.33-.4.33H6a.53.53,0,0,0,0,.1q-.15,1-.3,2.1c-.11.8-.22,1.6-.33,2.39,0,.2-.09.26-.27.26H3.65Z" style="fill:#565656"/><path d="M20.37,36.16l1.34-9.4c-.22,0-.43,0-.63,0H18.6a1.36,1.36,0,0,1,0-.15l.13-1a.24.24,0,0,1,.22-.25h7.37l.34,0c0,.06,0,.11,0,.16l-.19,1c0,.19-.08.23-.28.23H23.38c0,.19-.06.37-.09.55L23,29.51l-.31,2.2-.35,2.47-.24,1.72A.9.9,0,0,1,22,36a.17.17,0,0,1-.17.13H20.37Z" style="fill:#565656"/><path d="M49.59,22.83,49.7,22,50,19.72q.16-1.11.31-2.23c.09-.66.19-1.31.28-2l.33-2.31C51,13,51,13,51.2,13H53c.19,0,.24.06.22.24s-.08.59-.12.89l-.36,2.51-.38,2.74L52,21.84c0,.24-.07.48-.11.72a.26.26,0,0,1-.3.26h-2Z" style="fill:#565656"/><path d="M14.4,36.14H12.74a1.63,1.63,0,0,1,0-.21q.22-1.62.45-3.25c.15-1,.3-2.08.44-3.11.17-1.21.33-2.43.5-3.64a3.07,3.07,0,0,1,.06-.32.29.29,0,0,1,.28-.24h1.21c.14,0,.19.08.17.22,0,.33-.09.67-.13,1l-.26,1.87-.31,2.28-.35,2.56-.31,2.3c0,.13,0,.25-.05.38S14.42,36.08,14.4,36.14Z" style="fill:#565656"/><path d="M52.55,10.51a1.14,1.14,0,0,1-1.14-1.41A1.62,1.62,0,0,1,52.7,7.85a1.13,1.13,0,0,1,1.21.74A1.4,1.4,0,0,1,53.67,10,1.37,1.37,0,0,1,52.55,10.51Z" style="fill:#565656"/><path d="M66.61,35.78a.69.69,0,0,1-1.39,0,.7.7,0,0,1,.7-.69A.69.69,0,0,1,66.61,35.78Zm-.13,0a.56.56,0,0,0-.57-.56.56.56,0,1,0,0,1.12A.56.56,0,0,0,66.48,35.78Z" style="fill:#565656"/><path d="M65.8,35.86l0,.24h-.15v-.7a3.27,3.27,0,0,1,.36,0,.18.18,0,0,1,.14.3l-.05.07.17.32c-.17,0-.17,0-.23-.08S66,35.84,65.8,35.86Zm.19-.21a.11.11,0,0,0-.11-.12c-.06,0-.09,0-.09.09s0,.12.09.1A.38.38,0,0,0,66,35.65Z" style="fill:#565656"/></svg>