<?xml version="1.0" encoding="utf-8"?>
<!-- Generator: Adobe Illustrator 21.0.2, SVG Export Plug-In . SVG Version: 6.00 Build 0)  -->
<svg version="1.1" id="Слой_1" xmlns="http://www.w3.org/2000/svg" xmlns:xlink="http://www.w3.org/1999/xlink" x="0px" y="0px"
	 viewBox="0 0 67.4 45" style="enable-background:new 0 0 67.4 45;" xml:space="preserve">
<style type="text/css">
	.st0{fill:#A7A7A7;}
</style>
<title>1-УУ</title>
<path class="st0" d="M7.7,27.5c-0.4,0.9-0.8,1.8-1.2,2.8c-0.1,0.2-0.3,0.4-0.5,0.3c-0.5,0-1.1,0-1.6,0c-0.2,0-0.5-0.1-0.5-0.4
	c-0.3-0.8-0.7-1.6-1-2.4l-0.2-0.4c-0.2,0.1-0.1,0.3-0.1,0.4c0,1.4,0,2.8,0,4.2c0,0.3-0.1,0.4-0.4,0.4c-0.7,0-1.4,0-2,0
	c-0.3,0-0.3-0.1-0.3-0.3c0-3.3,0-6.5,0-9.8c0-0.3,0.1-0.3,0.3-0.3c0.9,0,1.7,0,2.6,0c0.2,0,0.5,0.1,0.5,0.4c0.6,1.4,1.2,2.9,1.8,4.3
	c0,0.1,0.1,0.3,0.2,0.4L6.1,25c0.4-0.9,0.7-1.7,1.1-2.6c0.1-0.2,0.3-0.4,0.5-0.3c0.9,0,1.7,0,2.6,0c0.2,0,0.3,0.1,0.3,0.3
	c0,3.3,0,6.6,0,9.9c0,0.3-0.1,0.3-0.3,0.3c-0.7,0-1.4,0-2.1,0c-0.3,0-0.4-0.1-0.4-0.4c0-1.4,0-2.8,0-4.3c0-0.1,0-0.3,0-0.4L7.7,27.5
	z"/>
<path class="st0" d="M33.8,16.7c-1,0-2.1,0-3.2,0c-0.3,0-0.4-0.1-0.2-0.4c1.8-4.6,3.7-9.2,5.5-13.8c0.2-0.4,0.3-0.8,0.4-1.1
	c0-0.2,0.2-0.3,0.4-0.3c0,0,0,0,0,0c0.1,0,0.3,0,0.4,0c0.2,0,0.4,0.1,0.4,0.3c0.5,1.4,1.1,2.8,1.7,4.1c0.1,0.2,0.1,0.4,0,0.6
	c-0.9,2.5-1.9,5-2.8,7.5c-0.1,0.3-0.2,0.7-0.3,1c-0.2,0.6,0.1,1.2,0.7,1.4c0.1,0,0.1,0,0.2,0c0.2,0.1,0.3,0.2,0.3,0.4
	s-0.2,0.2-0.4,0.2L33.8,16.7z"/>
<path class="st0" d="M24.6,16.7h-2.8c-0.1,0-0.3,0.1-0.4-0.2s0-0.4,0.3-0.4c0.9-0.2,1.6-0.8,2-1.6c0.6-1.2,1.1-2.4,1.5-3.7
	c1.3-3.1,2.5-6.2,3.7-9.3c0.1-0.2,0.1-0.4,0.3-0.4c0.3,0,0.6,0,0.9,0c0.1,0,0.1,0.1,0.1,0.2c0.6,1.4,1.1,2.8,1.7,4.3
	c0.1,0.2,0.1,0.3,0,0.5c-1.3,3.4-2.7,6.9-4.1,10.3c0,0.2-0.2,0.3-0.4,0.3C26.5,16.7,25.6,16.7,24.6,16.7z"/>
<path class="st0" d="M32.3,28.9l0.5-1.7c0.5-1.6,1-3.2,1.5-4.8c0-0.2,0.2-0.4,0.5-0.4c0,0,0,0,0,0c0.7,0,1.5,0,2.2,0
	c0.3,0,0.3,0.1,0.2,0.3c-1.1,3.3-2.2,6.6-3.3,9.9c0,0.2-0.2,0.3-0.4,0.3c-0.9,0-1.8,0-2.6,0c-0.2,0-0.3-0.1-0.4-0.3
	c-1.1-3.3-2.2-6.6-3.3-9.8c-0.1-0.3,0-0.3,0.3-0.3c0.7,0,1.5,0,2.2,0c0.3,0,0.4,0.1,0.5,0.4c0.6,2,1.3,4.1,1.9,6.1
	C32.1,28.7,32.2,28.8,32.3,28.9L32.3,28.9z"/>
<path class="st0" d="M56.4,22.1c1.3,0,2.5,0,3.8,0c0.3,0,0.4,0.1,0.4,0.4c0,0.5,0,1.1,0,1.7c0,0.3-0.1,0.4-0.4,0.4
	c-0.6,0-1.3,0-1.9,0c-0.4,0-0.5,0.1-0.5,0.5c0,2.4,0,4.8,0,7.1c0,0.3-0.1,0.5-0.4,0.4c-0.6,0-1.3,0-1.9,0c-0.3,0-0.4-0.1-0.4-0.4
	c0-2.4,0-4.8,0-7.2c0-0.4-0.1-0.5-0.5-0.5c-0.7,0-1.3,0-2,0c-0.3,0-0.4-0.1-0.4-0.4c0-0.5,0-1.1,0-1.7c0-0.3,0.1-0.4,0.4-0.4
	C53.8,22.1,55.1,22.1,56.4,22.1z"/>
<path class="st0" d="M67.4,27.3c0,1.6,0,3.2,0,4.8c0,0.4-0.1,0.4-0.4,0.4c-0.7,0-1.3,0-2,0c-0.2,0-0.3,0-0.3-0.3c0-3.3,0-6.6,0-9.8
	c0-0.3,0.1-0.3,0.3-0.3c0.7,0,1.4,0,2.1,0c0.3,0,0.4,0.1,0.4,0.4C67.4,24,67.4,25.7,67.4,27.3z"/>
<path class="st0" d="M40.9,9.4c0.5,0.9,0.8,1.8,1.1,2.7c0.3,0.7,0.5,1.4,0.9,2.1c0.3,1,1.2,1.7,2.2,1.9c0.2,0,0.2,0.2,0.2,0.4
	s-0.2,0.2-0.3,0.2h-6c-0.1,0-0.3,0-0.3-0.2s0-0.3,0.2-0.4c0.6-0.1,1.1-0.7,1-1.4c0-0.1,0-0.2-0.1-0.3c-0.2-0.6-0.4-1.1-0.6-1.6
	c-0.1-0.1-0.1-0.3,0-0.4l1.2-3C40.6,9.3,40.8,9.3,40.9,9.4z"/>
<path class="st0" d="M35.3,41.4c0-0.6,0-1.3-0.1-1.9c0-0.2,0-0.3,0.3-0.3c1,0,1.9-0.1,2.8-0.2c0.2,0,0.3,0,0.3,0.3
	c0,0.9,0.2,0.8-0.7,0.8c-0.4,0-0.8,0.1-1.2,0.1c-0.3,0-0.3,0.1-0.3,0.3s0.1,0.3,0.4,0.3c0.5,0,1,0,1.5-0.1c0.3,0,0.4,0.1,0.4,0.4
	c0,0.7,0,0.7-0.6,0.7c-0.4,0-0.8,0.1-1.1,0s-0.4,0.1-0.4,0.4s0.2,0.3,0.4,0.3c0.5,0,1.1,0,1.6-0.1c0.2,0,0.3,0,0.3,0.3
	c0,1,0.2,0.8-0.8,0.8c-0.8,0.1-1.5,0.1-2.3,0.1c-0.3,0-0.3,0-0.3-0.3C35.4,42.7,35.4,42.1,35.3,41.4z"/>
<path class="st0" d="M25.2,39c0-0.3,0.2-0.3,0.4-0.3c0.8,0.1,0.8,0.1,0.7,0.8c-0.1,0.9-0.1,0.9,0.9,1c0.6,0.1,0.6,0.1,0.7-0.6
	c0-0.1,0-0.2,0-0.3c0-0.2-0.1-0.5,0.1-0.6c0.3-0.1,0.7-0.1,1,0c0.1,0,0.1,0.2,0.1,0.3l-0.4,4c0,0.1,0,0.2-0.2,0.2s-0.6,0-0.9-0.1
	s-0.1-0.2-0.1-0.3c0-0.4,0.1-0.8,0.1-1.2c0-0.2,0-0.3-0.3-0.3s-0.6,0-0.9-0.1s-0.4,0-0.4,0.3S26,42.6,26,43c0,0.2-0.1,0.3-0.3,0.3
	c-0.9,0-0.9,0-0.8-0.9c0.1-1,0.2-2,0.3-3.1C25.1,39.2,25.1,39.1,25.2,39z"/>
<path class="st0" d="M48,39.5c0-0.8,0.4-1.6,1.2-2c0.8-0.5,1.7-0.5,2.5,0c0.2,0.1,0.3,0.3,0.1,0.5c0,0,0,0.1-0.1,0.1
	c-0.1,0.2-0.2,0.4-0.3,0.5s-0.3-0.1-0.5-0.2c-0.6-0.3-1.3,0-1.6,0.5c-0.3,0.6-0.1,1.3,0.4,1.7c0.6,0.3,1.3,0.2,1.7-0.3
	c0.1-0.1,0.1-0.4,0.3-0.3c0.3,0.1,0.6,0.3,0.8,0.5c0.1,0.2-0.1,0.3-0.2,0.4c-0.7,0.8-1.8,1.2-2.8,0.8C48.6,41.4,48,40.5,48,39.5z"/>
<path class="st0" d="M40,39.1c-0.1-0.2,0-0.3,0.3-0.3l3.1-0.4c0.2,0,0.3,0,0.3,0.2c0,0,0,0.1,0,0.1c0.1,0.8,0.1,0.8-0.6,0.8
	c-0.5,0-0.5,0.1-0.5,0.6c0.1,0.9,0.2,1.8,0.3,2.6c0,0.2,0,0.3-0.3,0.4c-0.9,0.1-0.8,0.1-0.9-0.8s-0.2-1.5-0.3-2.3
	c0-0.2-0.1-0.3-0.3-0.3c-0.1,0-0.2,0-0.2,0C40,39.9,40,39.9,40,39.1z"/>
<path class="st0" d="M20.8,38l2.9,0.5c0.2,0,0.3,0.1,0.2,0.3c-0.1,0.8-0.1,0.8-0.9,0.7c-0.4-0.1-0.5,0-0.6,0.4
	c-0.1,0.9-0.3,1.8-0.4,2.7c0,0.3-0.1,0.3-0.4,0.3c-0.8-0.1-0.8-0.1-0.7-0.9s0.2-1.6,0.4-2.4c0-0.3,0-0.4-0.3-0.4h-0.2
	c-0.8-0.1-0.8-0.1-0.6-0.9C20.4,38,20.4,38,20.8,38z"/>
<path class="st0" d="M30.8,41.5c0-0.7,0-1.3,0-2c0-0.3,0.1-0.4,0.4-0.4c0.8,0,0.8,0,0.8,0.8s0,1.6,0,2.4c0,0.3,0.1,0.4,0.4,0.4
	c0.4,0,0.9,0,1.3,0c0.3,0,0.3,0.1,0.3,0.3c0,0.8,0,0.8-0.8,0.7s-1.3,0-2,0c-0.3,0-0.4-0.1-0.4-0.4C30.8,42.7,30.8,42.1,30.8,41.5
	L30.8,41.5z"/>
<path class="st0" d="M45.8,38.1c0.2,0,0.2,0.1,0.3,0.2c0.2,1.3,0.4,2.7,0.7,4c0,0.2,0,0.3-0.2,0.3c-0.8,0.2-0.8,0.2-1-0.7
	c-0.2-1.1-0.3-2.2-0.5-3.3c-0.1-0.3,0-0.5,0.3-0.5C45.5,38.2,45.6,38.1,45.8,38.1z"/>
<path class="st0" d="M46.4,6.2h0.5c0.4,0,0.6,0.2,0.4,0.6c-0.4,0.6-0.6,1.3-0.5,2c0,0.2-0.1,0.3-0.3,0.3S46.2,9,46.2,8.8
	c0-0.6,0.1-1.2,0.3-1.7c0-0.1,0.2-0.3,0-0.3S46.1,6.6,46,6.9s-0.2,0.3-0.4,0.2s-0.2-0.2-0.2-0.3c0-0.5,0-0.5,0.5-0.5L46.4,6.2
	L46.4,6.2z"/>
<path class="st0" d="M20.6,7.4c0,0.2,0,0.3,0,0.5s-0.1,0.7,0.4,0.6c0.1,0,0.2,0.1,0.2,0.3S21.2,9,21,9h-1.3c-0.2,0-0.2-0.1-0.2-0.3
	s0.1-0.3,0.2-0.3c0.4,0.1,0.4-0.1,0.4-0.4s0-0.7,0-1.1S20,6.7,19.8,6.7s-0.4,0-0.4-0.3s0.2-0.3,0.4-0.2c0.8,0,0.8-0.2,0.8,0.8
	C20.6,7.1,20.6,7.3,20.6,7.4L20.6,7.4z"/>
<path class="st0" d="M43.8,8.5H43C43.3,8.3,43.5,8.3,43.8,8.5z"/>
<path class="st0" d="M25.2,39v0.4C25.1,39.2,25.1,39.1,25.2,39C25.1,38.9,25.2,38.9,25.2,39C25.1,39,25.2,39,25.2,39z"/>
<path class="st0" d="M19.2,21.9c-3,0.2-5.2,2.7-5.1,5.7c0.2,2.9,2.6,5.1,5.4,5.1c3-0.2,5.2-2.7,5.1-5.7C24.4,24.1,22,21.9,19.2,21.9
	z M21.6,28.6c-0.5,1.2-1.8,1.9-3.1,1.4c-0.6-0.2-1.1-0.7-1.4-1.3c-0.4-1-0.4-2.1,0.1-3.1c0.6-1.2,2-1.6,3.2-1.1
	c0.5,0.2,0.8,0.6,1.1,1.1c0.2,0.5,0.4,1,0.3,1.5C21.8,27.7,21.7,28.2,21.6,28.6z"/>
<path class="st0" d="M49.7,32.2c-1.2-3.3-2.4-6.6-3.6-9.9c0-0.2-0.2-0.3-0.4-0.3c-0.8,0-1.5,0-2.3,0c-0.3,0-0.5,0.1-0.6,0.4
	c-1,2.7-2,5.4-2.9,8l-0.7,2h2.7c0.2,0,0.2-0.1,0.2-0.2c0.1-0.4,0.3-0.8,0.4-1.2c0-0.2,0.2-0.3,0.4-0.3h3.2c0.2,0,0.3,0.1,0.3,0.3
	c0.1,0.4,0.3,0.8,0.4,1.2c0,0.2,0.2,0.3,0.4,0.3c0.8,0,1.5,0,2.3,0C49.8,32.5,49.8,32.4,49.7,32.2z M45.3,28.4h-1.5
	c-0.2,0-0.2,0-0.2-0.2c0.3-0.8,0.6-1.6,0.9-2.5h0.1c0.3,0.8,0.6,1.7,0.9,2.5C45.5,28.4,45.4,28.4,45.3,28.4z"/>
<path class="st0" d="M18.9,42c-0.2-1.4-0.5-2.8-0.7-4.1c0-0.3-0.2-0.4-0.5-0.4s-0.6-0.3-0.9,0.2c-0.7,1.1-1.4,2.2-2.1,3.3
	c-0.4,0.5-0.3,0.5,0.3,0.7c0.4,0.1,0.7,0.1,0.9-0.3c0.1-0.2,0.3-0.3,0.5-0.3c0,0,0.1,0,0.1,0c0.3,0.1,0.5,0.1,0.8,0.2
	c0.2,0,0.4,0.2,0.4,0.4c0,0,0,0,0,0.1c0,0.3,0.2,0.6,0.5,0.7c0,0,0.1,0,0.1,0c0.1,0,0.3,0,0.4,0.1c0.2,0.1,0.2,0,0.2-0.2L18.9,42z
	 M17.4,40.1c-0.2,0-0.4-0.1-0.5-0.1c-0.1,0,0-0.1,0-0.2l0.4-0.7c0.1,0.3,0.2,0.5,0.2,0.8C17.5,40,17.4,40.1,17.4,40.1L17.4,40.1z"/>
<path class="st0" d="M44.7,6.9c-0.1-0.5-0.5-0.8-1-0.7c0,0-0.1,0-0.1,0c-0.5,0.1-0.8,0.6-0.6,1.1c0,0,0,0,0,0C43,7.7,43.4,8,43.9,8
	c0,0,0.1,0,0.1,0c0.1,0,0.2-0.1,0.3,0c0,0.1,0,0.2-0.1,0.3c-0.1,0.1-0.2,0.2-0.3,0.2c-0.2-0.1-0.5-0.1-0.7,0
	c-0.1,0.2-0.2,0.4,0.1,0.5c0.6,0.2,1.3-0.1,1.6-0.7C44.9,7.8,44.8,7.3,44.7,6.9z M43.8,7.5c-0.2,0-0.3-0.1-0.3-0.4
	c0-0.2,0.1-0.4,0.3-0.4c0,0,0,0,0.1,0c0.2,0,0.4,0.1,0.4,0.3c0,0,0,0.1,0,0.1C44.2,7.3,44.1,7.4,43.8,7.5
	C43.9,7.5,43.8,7.5,43.8,7.5L43.8,7.5z"/>
<path class="st0" d="M23.8,6.9c-0.1-0.5-0.5-0.8-1-0.7c0,0-0.1,0-0.1,0c-0.5,0.1-0.8,0.6-0.7,1c0,0,0,0,0,0.1C22.1,7.8,22.4,8,23,8
	c0.1,0,0.2-0.1,0.2,0s0,0.2,0,0.3c-0.1,0.2-0.3,0.3-0.5,0.3h-0.5c-0.1,0-0.2,0.1-0.2,0.2S22,9,22.2,9c0.7,0.2,1.4-0.1,1.6-0.8
	c0,0,0-0.1,0-0.1c0-0.2,0-0.4,0.1-0.7C23.8,7.3,23.8,7.1,23.8,6.9z M22.9,7.5c-0.2,0-0.3-0.1-0.4-0.3c0,0,0-0.1,0-0.1
	c0-0.2,0.1-0.4,0.3-0.4c0,0,0.1,0,0.1,0c0.2,0,0.3,0.1,0.4,0.3c0,0,0,0,0,0.1C23.3,7.3,23.1,7.4,22.9,7.5
	C22.9,7.5,22.9,7.5,22.9,7.5L22.9,7.5z"/>
</svg>
