<svg id="Слой_1" data-name="Слой 1" xmlns="http://www.w3.org/2000/svg" viewBox="0 0 67.45 45"><title>1-УУ</title><path d="M7.73,27.51c-.4.91-.81,1.83-1.2,2.75a.44.44,0,0,1-.5.32c-.54,0-1.08,0-1.62,0a.48.48,0,0,1-.53-.35c-.33-.79-.68-1.57-1-2.35l-.18-.38c-.15.15-.09.3-.09.43,0,1.41,0,2.82,0,4.22,0,.29-.06.39-.37.38-.68,0-1.37,0-2.05,0-.25,0-.34-.07-.34-.33q0-4.89,0-9.79c0-.26.08-.34.34-.34.85,0,1.71,0,2.57,0a.47.47,0,0,1,.52.35c.58,1.44,1.18,2.87,1.78,4.3,0,.12.05.26.22.36L6.13,25c.36-.86.72-1.72,1.07-2.59a.44.44,0,0,1,.49-.33c.87,0,1.74,0,2.6,0,.22,0,.29.06.29.29q0,4.93,0,9.87c0,.25-.09.31-.32.3-.68,0-1.37,0-2.05,0-.29,0-.38-.08-.38-.38,0-1.42,0-2.84,0-4.26q0-.19,0-.37Z" style="fill:#565656"/><path d="M33.82,16.69c-1.05,0-2.11,0-3.16,0-.31,0-.35-.07-.23-.35q2.76-6.91,5.5-13.82c.15-.38.32-.75.44-1.14a.37.37,0,0,1,.43-.3,2.13,2.13,0,0,0,.43,0,.38.38,0,0,1,.44.29q.82,2.07,1.67,4.13a.76.76,0,0,1,0,.61q-1.41,3.75-2.81,7.5a7.43,7.43,0,0,0-.32,1,1.14,1.14,0,0,0,.86,1.49c.22.07.3.16.27.38s-.22.19-.36.19Z" style="fill:#565656"/><path d="M24.64,16.69H21.8c-.14,0-.33.07-.35-.2s0-.35.27-.39a2.82,2.82,0,0,0,2-1.59,39.89,39.89,0,0,0,1.55-3.71C26.52,7.72,27.75,4.63,29,1.54c.06-.16.06-.41.28-.43a5.12,5.12,0,0,1,.9,0c.09,0,.11.13.15.22C30.9,2.75,31.46,4.17,32,5.58a.61.61,0,0,1,0,.49Q30,11.24,27.92,16.41a.39.39,0,0,1-.44.29C26.54,16.69,25.59,16.69,24.64,16.69Z" style="fill:#565656"/><path d="M32.3,28.9l.54-1.68c.5-1.59,1-3.19,1.49-4.78a.42.42,0,0,1,.49-.36c.74,0,1.47,0,2.21,0,.26,0,.32.06.23.31q-1.66,4.93-3.31,9.87a.33.33,0,0,1-.36.27q-1.32,0-2.64,0c-.23,0-.31-.09-.38-.3q-1.63-4.92-3.29-9.84c-.1-.29,0-.33.25-.32.74,0,1.47,0,2.21,0,.29,0,.38.11.46.36.63,2,1.28,4.09,1.92,6.13,0,.11.08.22.12.33Z" style="fill:#565656"/><path d="M56.36,22.08c1.28,0,2.55,0,3.83,0,.27,0,.37.06.36.35,0,.55,0,1.11,0,1.66,0,.3-.07.42-.39.41-.64,0-1.29,0-1.93,0-.38,0-.51.07-.51.49,0,2.38,0,4.76,0,7.14,0,.35-.08.45-.43.44-.64,0-1.29,0-1.93,0-.33,0-.42-.08-.42-.41,0-2.39,0-4.79,0-7.18,0-.39-.11-.49-.48-.47-.66,0-1.32,0-2,0-.28,0-.4-.06-.39-.37,0-.55,0-1.11,0-1.66,0-.29.07-.38.37-.38C53.78,22.09,55.07,22.08,56.36,22.08Z" style="fill:#565656"/><path d="M67.44,27.29c0,1.61,0,3.21,0,4.82,0,.36-.11.44-.45.43-.66,0-1.32,0-2,0-.23,0-.35,0-.35-.32q0-4.91,0-9.83c0-.25.08-.31.32-.31.7,0,1.39,0,2.09,0,.28,0,.36.08.36.36C67.43,24,67.44,25.67,67.44,27.29Z" style="fill:#565656"/><path d="M40.88,9.44c.45.86.75,1.79,1.13,2.68.29.69.55,1.39.87,2.07a3,3,0,0,0,2.19,1.92c.24,0,.23.21.23.38s-.17.19-.31.19H39c-.12,0-.28,0-.28-.18s0-.31.21-.38a1.19,1.19,0,0,0,.88-1.67c-.16-.55-.38-1.09-.57-1.63a.55.55,0,0,1,0-.42l1.2-3A.43.43,0,0,1,40.88,9.44Z" style="fill:#565656"/><path d="M35.34,41.4c0-.64-.05-1.29-.1-1.93,0-.23,0-.33.28-.33.95,0,1.89-.09,2.84-.15.23,0,.33,0,.33.29,0,.91.18.75-.73.81-.41,0-.81.06-1.22.06-.25,0-.31.1-.3.33s.1.34.36.32c.5,0,1,0,1.5-.09.3,0,.38.08.39.37,0,.67,0,.66-.63.7-.38,0-.76.07-1.14.05s-.39.13-.38.42.18.34.44.32c.54,0,1.08,0,1.61-.09.21,0,.27.05.27.26,0,1,.18.78-.76.85-.77.06-1.55.07-2.32.12-.25,0-.32-.05-.33-.3C35.42,42.74,35.37,42.07,35.34,41.4Z" style="fill:#565656"/><path d="M25.19,39c0-.27.18-.32.43-.29.77.08.77.07.71.83-.08.94-.08.94.85,1,.65.06.65.06.72-.6a2.65,2.65,0,0,1,0-.35c.05-.21-.08-.53.13-.62A1.71,1.71,0,0,1,29,39c.14,0,.12.15.11.25l-.36,4c0,.11,0,.23-.16.23s-.58,0-.86-.08-.12-.18-.11-.29c0-.41.06-.81.1-1.22,0-.22-.05-.31-.27-.32s-.63,0-.94-.08-.39,0-.4.32-.08.78-.11,1.18c0,.21-.1.25-.3.25-.87,0-.87,0-.8-.89q.13-1.53.26-3.06A.39.39,0,0,1,25.19,39Z" style="fill:#565656"/><path d="M48,39.48a2.12,2.12,0,0,1,1.16-2,2.38,2.38,0,0,1,2.51,0c.2.12.31.25.11.46a.76.76,0,0,0-.07.1c-.11.16-.18.38-.33.48s-.33-.14-.5-.21a1.26,1.26,0,0,0-1.58.51,1.38,1.38,0,0,0,.42,1.72,1.33,1.33,0,0,0,1.71-.3c.11-.13.12-.44.34-.35a1.6,1.6,0,0,1,.76.54c.1.15-.09.31-.19.44a2.59,2.59,0,0,1-2.81.82A2.3,2.3,0,0,1,48,39.48Z" style="fill:#565656"/><path d="M40,39.14c-.06-.2,0-.29.26-.31l3.09-.36c.19,0,.28,0,.28.22a.57.57,0,0,0,0,.08c.12.75.12.75-.62.83-.54.05-.54.06-.48.58.1.87.19,1.75.31,2.62,0,.24,0,.34-.27.38-.86.09-.85.11-.93-.76s-.18-1.54-.26-2.31c0-.23-.1-.34-.35-.28a1.74,1.74,0,0,1-.24,0C40,39.92,40,39.92,40,39.14Z" style="fill:#565656"/><path d="M20.76,38l2.92.45c.2,0,.26.1.24.31-.07.81-.07.82-.87.67-.36-.07-.54,0-.59.4-.09.89-.27,1.77-.4,2.65,0,.28-.15.33-.41.29-.77-.12-.78-.11-.66-.86s.24-1.59.37-2.38c0-.27,0-.4-.3-.41h-.16c-.77-.11-.77-.11-.61-.89C20.36,38,20.36,38,20.76,38Z" style="fill:#565656"/><path d="M30.82,41.49c0-.67,0-1.34,0-2,0-.25.07-.37.36-.36.79,0,.8,0,.79.79s0,1.58-.05,2.37c0,.27.07.38.36.37.43,0,.87,0,1.3,0,.26,0,.33.09.34.34,0,.76,0,.76-.75.73s-1.34,0-2,0c-.3,0-.42-.07-.41-.39,0-.6,0-1.21,0-1.81Z" style="fill:#565656"/><path d="M45.82,38.08c.18,0,.23.07.26.22q.33,2,.66,4c0,.21,0,.28-.24.31-.84.17-.84.17-1-.68-.18-1.09-.35-2.18-.55-3.26-.06-.32,0-.51.35-.5A2.82,2.82,0,0,0,45.82,38.08Z" style="fill:#565656"/><path d="M46.42,6.22h.47c.42,0,.59.24.36.6a3.27,3.27,0,0,0-.54,2c0,.18-.09.26-.27.26s-.25-.09-.26-.26a3.81,3.81,0,0,1,.34-1.72c0-.1.23-.25,0-.31s-.43-.14-.51.12-.18.27-.37.23-.17-.21-.17-.35c0-.53,0-.53.5-.53h.43Z" style="fill:#565656"/><path d="M20.63,7.41c0,.17,0,.34,0,.51s-.11.67.43.59c.15,0,.2.15.19.29S21.19,9,21,9h-1.3c-.17,0-.24-.09-.24-.25s.06-.31.24-.28c.38.07.4-.13.39-.42s0-.71,0-1.06-.06-.32-.29-.3-.35,0-.35-.26.18-.25.36-.24c.8,0,.84-.17.78.8,0,.13,0,.26,0,.39Z" style="fill:#565656"/><path d="M43.75,8.48l-.7,0A.65.65,0,0,1,43.75,8.48Z" style="fill:#565656"/><path d="M25.19,39l0,.37a.53.53,0,0,1-.06-.41c0-.05.05-.06,0,0S25.18,39,25.19,39Z" style="fill:#565656"/><path d="M19.16,21.91a5.4,5.4,0,0,0,.38,10.79,5.4,5.4,0,0,0-.38-10.79Zm2.42,6.73a2.39,2.39,0,0,1-4.45.11,3.58,3.58,0,0,1,.09-3.06,2.38,2.38,0,0,1,4.25,0,3.29,3.29,0,0,1,.34,1.53A3.68,3.68,0,0,1,21.58,28.64Z" style="fill:#565656"/><path d="M49.74,32.21q-1.81-4.92-3.61-9.85a.38.38,0,0,0-.43-.29c-.75,0-1.5,0-2.25,0a.51.51,0,0,0-.59.41c-1,2.68-2,5.36-2.94,8l-.73,2h2.69c.15,0,.19-.11.23-.23.14-.4.29-.79.42-1.19a.34.34,0,0,1,.36-.28h3.2a.31.31,0,0,1,.34.25c.13.39.27.77.39,1.16a.35.35,0,0,0,.39.29c.78,0,1.55,0,2.33,0C49.81,32.54,49.83,32.44,49.74,32.21Zm-4.48-3.77H43.72c-.18,0-.23-.05-.16-.24.3-.82.59-1.65.89-2.48h.1c.29.84.58,1.68.88,2.52C45.5,28.43,45.39,28.44,45.26,28.44Z" style="fill:#565656"/><path d="M18.9,42c-.23-1.38-.46-2.75-.67-4.13,0-.29-.17-.42-.45-.44s-.59-.26-.86.16c-.69,1.11-1.43,2.18-2.15,3.26-.35.54-.34.51.27.68.41.12.67.06.85-.34a.4.4,0,0,1,.57-.25,3.39,3.39,0,0,0,.81.17.39.39,0,0,1,.4.43.6.6,0,0,0,.66.68,1.46,1.46,0,0,1,.39.08c.17.06.22,0,.2-.16Zm-1.55-1.92a3,3,0,0,1-.53-.12c-.07,0,0-.12,0-.17l.43-.65a2.6,2.6,0,0,1,.18.81C17.45,40,17.44,40.09,17.35,40.07Z" style="fill:#565656"/><path d="M44.71,6.87a.85.85,0,0,0-1.07-.67A.89.89,0,0,0,43,7.31a.78.78,0,0,0,1,.66c.09,0,.22-.12.27,0a.34.34,0,0,1-.1.33.4.4,0,0,1-.34.17,1,1,0,0,0-.7,0c-.07.18-.19.4.06.51a1.25,1.25,0,0,0,1.58-.74A3.16,3.16,0,0,0,44.71,6.87Zm-.89.59c-.22,0-.33-.13-.34-.36a.34.34,0,0,1,.33-.41.34.34,0,0,1,.39.38A.34.34,0,0,1,43.81,7.46Z" style="fill:#565656"/><path d="M23.77,6.9a.86.86,0,0,0-1.09-.7A.89.89,0,0,0,22,7.32c.09.49.43.71,1,.63.08,0,.16-.07.22,0s0,.18,0,.25a.49.49,0,0,1-.46.31h-.51c-.15,0-.2.11-.2.24s0,.21.13.26a1.25,1.25,0,0,0,1.61-.87c0-.22,0-.44.06-.66A5.55,5.55,0,0,0,23.77,6.9Zm-.88.56a.33.33,0,0,1-.38-.36.35.35,0,0,1,.38-.4.34.34,0,0,1,.36.38A.34.34,0,0,1,22.9,7.46Z" style="fill:#565656"/></svg>