<svg id="Слой_1" data-name="Слой 1" xmlns="http://www.w3.org/2000/svg" viewBox="0 0 67.45 45"><title>truefitness</title><path d="M31.62,28.51v.19c0,.69,0,1.38,0,2.07,0,.15,0,.19-.19.19H29.52c-.15,0-.19,0-.19-.19q0-2.51,0-5c0-.14,0-.18.18-.18h2.16a.21.21,0,0,1,.22.15l.82,1.84a.4.4,0,0,0,.12.16c0-.06,0-.12,0-.18,0-.6,0-1.19,0-1.79,0-.13,0-.19.17-.18H35c.13,0,.17,0,.17.17q0,2.51,0,5c0,.14-.05.18-.19.18h-2a.21.21,0,0,1-.22-.15c-.31-.72-.63-1.44-.94-2.15l-.07-.16Z" style="fill:#565656"/><path d="M53.46,27.15H51.19l0-.18a.24.24,0,0,0-.25-.23.46.46,0,0,0-.29.15.24.24,0,0,0,0,.34.83.83,0,0,0,.26.15c.6.24,1.2.48,1.81.7a1,1,0,0,1,.72.92c0,.37,0,.74,0,1.11a.93.93,0,0,1-1,.87c-1,0-2.09,0-3.13,0a1.5,1.5,0,0,1-.59-.17.79.79,0,0,1-.45-.73c0-.29,0-.59,0-.89,0-.11,0-.15.14-.15h2c.12,0,.16.05.15.16a2.22,2.22,0,0,0,0,.34.27.27,0,0,0,.3.26.28.28,0,0,0,.27-.29c0-.07,0-.14,0-.21a.41.41,0,0,0-.33-.48l-1.69-.63L49,28.13a1,1,0,0,1-.74-1c0-.22,0-.45,0-.67a.87.87,0,0,1,.73-.84,2.17,2.17,0,0,1,.56-.08h2.6a2.21,2.21,0,0,1,.56.08.87.87,0,0,1,.73.84C53.47,26.69,53.46,26.91,53.46,27.15Z" style="fill:#565656"/><path d="M44.88,27.16c0-.09,0-.16-.06-.23a.23.23,0,0,0-.26-.19.44.44,0,0,0-.27.16.25.25,0,0,0,.06.34,1,1,0,0,0,.26.14c.61.24,1.22.49,1.84.72a1,1,0,0,1,.68,1c0,.28,0,.55,0,.83a1,1,0,0,1-1,1.06c-1,0-2.09,0-3.13,0a1.51,1.51,0,0,1-.56-.16.87.87,0,0,1-.49-.87c0-.25,0-.51,0-.76s0-.14.15-.14h2.05c.11,0,.16,0,.15.16a2.55,2.55,0,0,0,0,.35.25.25,0,0,0,.28.24.26.26,0,0,0,.28-.26,2.73,2.73,0,0,0,0-.35c0-.2-.15-.29-.32-.36l-1.7-.64a3.31,3.31,0,0,1-.39-.17.89.89,0,0,1-.49-.82c0-.18,0-.35,0-.53a1,1,0,0,1,1-1.07,6.73,6.73,0,0,1,.86,0c.7,0,1.39,0,2.09,0a2.51,2.51,0,0,1,.8.18.75.75,0,0,1,.48.76c0,.18,0,.37,0,.55s-.07.11-.1.12Z" style="fill:#565656"/><path d="M36.63,28.27c0-.83,0-1.66,0-2.5,0-.14,0-.19.19-.19h3.7c.13,0,.19,0,.19.18s0,.57,0,.85c0,.13,0,.18-.17.18H39.34c-.16,0-.22.05-.21.22,0,.48-.07.42.43.42h1c.13,0,.19,0,.19.18s0,.58,0,.87c0,.11,0,.15-.15.15H39.3c-.13,0-.18,0-.17.17s0,.54,0,.81,0,.18.17.17h1.22c.13,0,.18,0,.17.17,0,.28,0,.57,0,.85,0,.13,0,.18-.17.18H36.79c-.14,0-.17-.06-.17-.18C36.63,29.94,36.63,29.11,36.63,28.27Z" style="fill:#565656"/><path d="M17.8,28.61H16.43c-.15,0-.2,0-.2.19,0,.65,0,1.3,0,1.95,0,.16,0,.21-.21.21H13.92c-.18,0-.21-.06-.21-.22q0-2.48,0-5c0-.17.05-.21.21-.2H17.6c.15,0,.21,0,.2.19a7.88,7.88,0,0,0,0,.81c0,.16-.06.2-.2.2H16.43c-.15,0-.2,0-.2.2,0,.43,0,.43.43.43h1c.08,0,.15,0,.15.12C17.79,27.88,17.8,28.23,17.8,28.61Z" style="fill:#565656"/><path d="M23,25.58h4.91c.15,0,.22,0,.21.2s0,.5,0,.74,0,.25-.25.25H27c-.16,0-.2.05-.2.21,0,1.25,0,2.5,0,3.76,0,.18-.05.23-.23.23H24.47c-.15,0-.2,0-.2-.2,0-1.26,0-2.52,0-3.77,0-.16,0-.22-.21-.21h-.94c-.13,0-.17,0-.17-.17C23,26.28,23,25.95,23,25.58Z" style="fill:#565656"/><path d="M21.8,25.59v.2c0,1.65,0,3.3,0,5,0,.17,0,.22-.22.22H19.48c-.16,0-.21,0-.21-.21q0-2.5,0-5c0-.15,0-.19.19-.19H21.8Z" style="fill:#565656"/><path d="M30.6,18.63l.41.11a1.72,1.72,0,0,1,1.38,1.78c0,.72,0,1.45,0,2.18,0,.13,0,.17-.17.17H28.05c-.15,0-.18,0-.18-.18,0-.76,0-1.52,0-2.28,0-.11,0-.22,0-.34a.46.46,0,0,0-.51-.49h-.46c-.15,0-.19,0-.19.19,0,.83,0,1.65,0,2.48,0,.2,0,.4,0,.61H22.45c-.17,0-.22-.05-.22-.22q0-3.75,0-7.51c0-.18,0-.23.23-.23h7.19a5,5,0,0,1,1.57.21A1.59,1.59,0,0,1,32.39,17a2.14,2.14,0,0,1-.12.6,1.29,1.29,0,0,1-.77.77C31.22,18.45,30.92,18.53,30.6,18.63ZM26.7,17.29c0,.14,0,.28,0,.42s0,.15.15.15h.48a.5.5,0,0,0,.55-.6s0-.09,0-.14a.4.4,0,0,0-.38-.38c-.21,0-.42,0-.63,0s-.15,0-.14.15S26.7,17.15,26.7,17.29Z" style="fill:#565656"/><path d="M39,14.92h4.25c.17,0,.22.05.22.22,0,1.94,0,3.88,0,5.83a3.81,3.81,0,0,1-.13.9,1.15,1.15,0,0,1-.68.75,3,3,0,0,1-1.21.28l-3.7,0c-.64,0-1.28,0-1.91,0a4.68,4.68,0,0,1-1.39-.2,1.41,1.41,0,0,1-1.06-1.46c0-2.06,0-4.12,0-6.18,0-.14,0-.17.17-.17h4.11c.17,0,.18.07.18.2q0,2.63,0,5.26a2.47,2.47,0,0,0,0,.32.42.42,0,0,0,.43.43.89.89,0,0,0,.43-.05A.59.59,0,0,0,39,20.8a.91.91,0,0,0,0-.37q0-2.63,0-5.26Z" style="fill:#565656"/><path d="M44.47,14.93h9.11c0,.17,0,.32,0,.48,0,.37,0,.74,0,1.12,0,.15,0,.19-.19.19h-3c-.28,0-.28,0-.28.28s0,.3,0,.44,0,.18.18.18h3.28v1.77H50.32c-.17,0-.22,0-.22.22,0,.41,0,.81,0,1.22,0,.24,0,.24.24.24h3.22v1.78H44.65c-.15,0-.19,0-.19-.19q0-3.79,0-7.58C44.46,15.05,44.47,15,44.47,14.93Z" style="fill:#565656"/><path d="M14.77,22.87v-.24q0-2.84,0-5.68c0-.23,0-.23-.24-.23H12.66c-.14,0-.2,0-.19-.19,0-.48,0-1,0-1.43,0-.05,0-.1,0-.18H21.3c.19,0,.23.06.22.23,0,.46,0,.92,0,1.38,0,.15,0,.19-.19.19H19.44c-.18,0-.23.06-.23.23,0,1.9,0,3.8,0,5.7,0,.18,0,.23-.22.23H14.77Z" style="fill:#565656"/><path d="M67.24,23.79H64.88v-.44l-.25,0v-.53h-2.2c0,.25,0,.49,0,.72s0,.3-.3.27l-.05,0V22.22l-.21,0v-3H60.1v2.88h-.64v-4H57.68v4.78h-1.9v.87h-44c-.15,0-.2,0-.19-.19s0-.47,0-.72H9.72V18.11H7.94v4H7.3V19.22H5.52v3l-.21,0v1.56H5v-1H2.78v.54c-.26-.06-.27.09-.25.26s0,.21-.2.21H-.26V24.9H2.54v.51l.25,0v.34H5V24.9h.34v1.53l.21,0v3.05H7.32V26.4H8v4.31H9.73v-5h1.89v-.84H55.79v.86h1.89v5h1.78V26.42h.65v3.12h1.77V26.48l.21,0V24.91h.35v.9h2.18l0-.36.25,0V24.9h2.55V23.8Z" style="fill:#565656"/></svg>