<?xml version="1.0" encoding="utf-8"?>
<!-- Generator: Adobe Illustrator 21.0.2, SVG Export Plug-In . SVG Version: 6.00 Build 0)  -->
<svg version="1.1" id="Слой_1" xmlns="http://www.w3.org/2000/svg" xmlns:xlink="http://www.w3.org/1999/xlink" x="0px" y="0px"
	 viewBox="0 0 67.4 45" style="enable-background:new 0 0 67.4 45;" xml:space="preserve">
<style type="text/css">
	.st0{fill:#A7A7A7;}
</style>
<title>truefitness</title>
<path class="st0" d="M31.6,28.5v0.2c0,0.7,0,1.4,0,2.1c0,0.1,0,0.2-0.2,0.2h-1.9c-0.1,0-0.2,0-0.2-0.2c0-1.7,0-3.3,0-5
	c0-0.1,0-0.2,0.2-0.2h2.2c0.1,0,0.2,0.1,0.2,0.1l0.8,1.8c0,0.1,0.1,0.1,0.1,0.2c0-0.1,0-0.1,0-0.2c0-0.6,0-1.2,0-1.8
	c0-0.1,0-0.2,0.2-0.2h2c0.1,0,0.2,0,0.2,0.2c0,1.7,0,3.3,0,5c0,0.1,0,0.2-0.2,0.2h-2c-0.1,0-0.2-0.1-0.2-0.1
	c-0.3-0.7-0.6-1.4-0.9-2.1l-0.1-0.2L31.6,28.5z"/>
<path class="st0" d="M53.5,27.1h-2.3V27c0-0.1-0.1-0.2-0.2-0.2c0,0,0,0,0,0c-0.1,0-0.2,0.1-0.3,0.1c-0.1,0.1-0.1,0.2,0,0.3
	c0,0,0,0,0,0c0.1,0.1,0.2,0.1,0.3,0.1c0.6,0.2,1.2,0.5,1.8,0.7c0.4,0.1,0.7,0.5,0.7,0.9c0,0.4,0,0.7,0,1.1c0,0.5-0.5,0.9-1,0.9
	c0,0,0,0,0,0c-1,0-2.1,0-3.1,0c-0.2,0-0.4-0.1-0.6-0.2c-0.3-0.1-0.5-0.4-0.5-0.7c0-0.3,0-0.6,0-0.9c0-0.1,0-0.1,0.1-0.1h2
	c0.1,0,0.2,0,0.2,0.2c0,0.1,0,0.2,0,0.3c0,0.1,0.1,0.3,0.3,0.3c0,0,0,0,0,0c0.2,0,0.3-0.1,0.3-0.3c0,0,0,0,0,0c0-0.1,0-0.1,0-0.2
	c0-0.2-0.1-0.4-0.3-0.5c0,0,0,0,0,0l-1.7-0.6L49,28.1c-0.4-0.1-0.8-0.5-0.7-1c0-0.2,0-0.5,0-0.7c0-0.4,0.3-0.8,0.7-0.8
	c0.2-0.1,0.4-0.1,0.6-0.1h2.6c0.2,0,0.4,0,0.6,0.1c0.4,0.1,0.7,0.4,0.7,0.8C53.5,26.7,53.5,26.9,53.5,27.1z"/>
<path class="st0" d="M44.9,27.2c0-0.1,0-0.2-0.1-0.2c0-0.1-0.1-0.2-0.3-0.2c-0.1,0-0.2,0.1-0.3,0.2c-0.1,0.1,0,0.3,0.1,0.3
	c0.1,0.1,0.2,0.1,0.3,0.1c0.6,0.2,1.2,0.5,1.8,0.7c0.4,0.1,0.7,0.6,0.7,1c0,0.3,0,0.5,0,0.8c0,0.6-0.4,1-0.9,1.1c0,0,0,0-0.1,0
	c-1,0-2.1,0-3.1,0c-0.2,0-0.4-0.1-0.6-0.2c-0.3-0.2-0.5-0.5-0.5-0.9c0-0.3,0-0.5,0-0.8s0-0.1,0.2-0.1h2c0.1,0,0.2,0,0.2,0.2
	c0,0.1,0,0.2,0,0.4c0,0.1,0.1,0.2,0.3,0.2c0,0,0,0,0,0c0.1,0,0.3-0.1,0.3-0.2c0,0,0,0,0,0c0-0.1,0-0.2,0-0.4c0-0.2-0.2-0.3-0.3-0.4
	l-1.7-0.6c-0.1,0-0.3-0.1-0.4-0.2c-0.3-0.2-0.5-0.5-0.5-0.8c0-0.2,0-0.4,0-0.5c0-0.6,0.4-1,0.9-1.1c0,0,0,0,0.1,0c0.3,0,0.6,0,0.9,0
	c0.7,0,1.4,0,2.1,0c0.3,0,0.5,0.1,0.8,0.2c0.3,0.1,0.5,0.4,0.5,0.8c0,0.2,0,0.4,0,0.5s-0.1,0.1-0.1,0.1L44.9,27.2z"/>
<path class="st0" d="M36.6,28.3c0-0.8,0-1.7,0-2.5c0-0.1,0-0.2,0.2-0.2h3.7c0.1,0,0.2,0,0.2,0.2s0,0.6,0,0.9c0,0.1,0,0.2-0.2,0.2
	h-1.2c-0.2,0-0.2,0-0.2,0.2c0,0.5-0.1,0.4,0.4,0.4h1c0.1,0,0.2,0,0.2,0.2s0,0.6,0,0.9c0,0.1,0,0.1-0.2,0.1h-1.3
	c-0.1,0-0.2,0-0.2,0.2s0,0.5,0,0.8s0,0.2,0.2,0.2h1.2c0.1,0,0.2,0,0.2,0.2c0,0.3,0,0.6,0,0.9c0,0.1,0,0.2-0.2,0.2h-3.7
	c-0.1,0-0.2-0.1-0.2-0.2C36.6,29.9,36.6,29.1,36.6,28.3z"/>
<path class="st0" d="M17.8,28.6h-1.4c-0.1,0-0.2,0-0.2,0.2c0,0.6,0,1.3,0,2c0,0.2,0,0.2-0.2,0.2h-2.1c-0.2,0-0.2-0.1-0.2-0.2
	c0-1.7,0-3.3,0-5c0-0.2,0.1-0.2,0.2-0.2h3.7c0.1,0,0.2,0,0.2,0.2c0,0.3,0,0.5,0,0.8c0,0.2-0.1,0.2-0.2,0.2h-1.2
	c-0.1,0-0.2,0-0.2,0.2c0,0.4,0,0.4,0.4,0.4h1c0.1,0,0.1,0,0.1,0.1C17.8,27.9,17.8,28.2,17.8,28.6z"/>
<path class="st0" d="M23,25.6h4.9c0.1,0,0.2,0,0.2,0.2s0,0.5,0,0.7s0,0.3-0.3,0.3H27c-0.2,0-0.2,0-0.2,0.2c0,1.3,0,2.5,0,3.8
	c0,0.2,0,0.2-0.2,0.2h-2.1c-0.1,0-0.2,0-0.2-0.2c0-1.3,0-2.5,0-3.8c0-0.2,0-0.2-0.2-0.2h-0.9c-0.1,0-0.2,0-0.2-0.2
	C23,26.3,23,26,23,25.6z"/>
<path class="st0" d="M21.8,25.6v0.2c0,1.6,0,3.3,0,5c0,0.2,0,0.2-0.2,0.2h-2.1c-0.2,0-0.2,0-0.2-0.2c0-1.7,0-3.3,0-5
	c0-0.1,0-0.2,0.2-0.2L21.8,25.6L21.8,25.6z"/>
<path class="st0" d="M30.6,18.6l0.4,0.1c0.8,0.2,1.4,0.9,1.4,1.8c0,0.7,0,1.5,0,2.2c0,0.1,0,0.2-0.2,0.2H28c-0.1,0-0.2,0-0.2-0.2
	c0-0.8,0-1.5,0-2.3c0-0.1,0-0.2,0-0.3c0-0.3-0.2-0.5-0.4-0.5c0,0-0.1,0-0.1,0h-0.5c-0.1,0-0.2,0-0.2,0.2c0,0.8,0,1.6,0,2.5
	c0,0.2,0,0.4,0,0.6h-4.3c-0.2,0-0.2,0-0.2-0.2c0-2.5,0-5,0-7.5c0-0.2,0-0.2,0.2-0.2h7.2c0.5,0,1.1,0.1,1.6,0.2
	c0.8,0.2,1.4,1,1.2,1.9c0,0.2-0.1,0.4-0.1,0.6c-0.1,0.4-0.4,0.6-0.8,0.8C31.2,18.5,30.9,18.5,30.6,18.6z M26.7,17.3
	c0,0.1,0,0.3,0,0.4s0,0.1,0.1,0.1h0.5c0.3,0,0.5-0.2,0.6-0.4c0-0.1,0-0.1,0-0.2c0,0,0-0.1,0-0.1c0-0.2-0.2-0.4-0.4-0.4
	c-0.2,0-0.4,0-0.6,0s-0.1,0-0.1,0.1S26.7,17.1,26.7,17.3z"/>
<path class="st0" d="M39,14.9h4.3c0.2,0,0.2,0.1,0.2,0.2c0,1.9,0,3.9,0,5.8c0,0.3-0.1,0.6-0.1,0.9c-0.1,0.3-0.3,0.6-0.7,0.8
	c-0.4,0.2-0.8,0.3-1.2,0.3h-3.7c-0.6,0-1.3,0-1.9,0c-0.5,0-0.9-0.1-1.4-0.2c-0.7-0.2-1.1-0.8-1.1-1.5c0-2.1,0-4.1,0-6.2
	c0-0.1,0-0.2,0.2-0.2h4.1c0.2,0,0.2,0.1,0.2,0.2c0,1.8,0,3.5,0,5.3c0,0.1,0,0.2,0,0.3c0,0.2,0.2,0.4,0.4,0.4c0,0,0,0,0,0
	c0.1,0,0.3,0,0.4,0c0.1,0,0.2-0.1,0.3-0.3c0-0.1,0-0.2,0-0.4c0-1.8,0-3.5,0-5.3V14.9z"/>
<path class="st0" d="M44.5,14.9h9.1c0,0.2,0,0.3,0,0.5c0,0.4,0,0.7,0,1.1c0,0.1,0,0.2-0.2,0.2h-3c-0.3,0-0.3,0-0.3,0.3s0,0.3,0,0.4
	s0,0.2,0.2,0.2h3.3v1.8h-3.3c-0.2,0-0.2,0-0.2,0.2c0,0.4,0,0.8,0,1.2c0,0.2,0,0.2,0.2,0.2h3.2v1.8h-8.9c-0.2,0-0.2,0-0.2-0.2
	c0-2.5,0-5.1,0-7.6C44.5,15.1,44.5,15,44.5,14.9z"/>
<path class="st0" d="M14.8,22.9v-0.2c0-1.9,0-3.8,0-5.7c0-0.2,0-0.2-0.2-0.2h-1.9c-0.1,0-0.2,0-0.2-0.2c0-0.5,0-1,0-1.4
	c0-0.1,0-0.1,0-0.2h8.8c0.2,0,0.2,0.1,0.2,0.2c0,0.5,0,0.9,0,1.4c0,0.1,0,0.2-0.2,0.2h-1.9c-0.2,0-0.2,0.1-0.2,0.2
	c0,1.9,0,3.8,0,5.7c0,0.2,0,0.2-0.2,0.2L14.8,22.9L14.8,22.9z"/>
<path class="st0" d="M67.2,23.8h-2.4v-0.4h-0.3v-0.5h-2.2c0,0.3,0,0.5,0,0.7s0,0.3-0.3,0.3h0v-1.6h-0.2v-3h-1.8v2.9h-0.6v-4h-1.8
	v4.8h-1.9v0.9h-44c-0.1,0-0.2,0-0.2-0.2s0-0.5,0-0.7H9.7v-4.7H7.9v4H7.3v-2.9H5.5v3H5.3v1.6H5v-1H2.8v0.5c-0.3-0.1-0.3,0.1-0.3,0.3
	s0,0.2-0.2,0.2h-2.6v1.1h2.8v0.5h0.3v0.3H5v-0.9h0.3v1.5h0.2v3h1.8v-3.1H8v4.3h1.7v-5h1.9v-0.8h44.2v0.9h1.9v5h1.8v-4.3h0.7v3.1h1.8
	v-3.1h0.2v-1.6h0.3v0.9h2.2v-0.4h0.3v-0.5h2.6v-1.1L67.2,23.8z"/>
</svg>
