<?xml version="1.0" encoding="utf-8"?>
<!-- Generator: Adobe Illustrator 21.0.2, SVG Export Plug-In . SVG Version: 6.00 Build 0)  -->
<svg version="1.1" id="Слой_1" xmlns="http://www.w3.org/2000/svg" xmlns:xlink="http://www.w3.org/1999/xlink" x="0px" y="0px"
	 viewBox="0 0 67.4 45" style="enable-background:new 0 0 67.4 45;" xml:space="preserve">
<style type="text/css">
	.st0{fill:#A7A7A7;}
</style>
<title>Y</title>
<path class="st0" d="M40.6,44.7H28.2c-0.1,0-0.2-0.1-0.2-0.2c-0.2-0.6-0.4-1.3-0.5-1.9c0-4.9,0-9.8-0.1-14.7c0-1.4-0.4-2.8-1.1-4.1
	c-2.7-4.9-5.5-9.7-8.3-14.5c-1.6-2.7-3.3-5.4-4.9-8.2c-0.4-0.7-1.1-0.8,3.5-0.8c2.6,0,3.4,0.1,6.4,0c0.8-0.2,1.7,0,2.5,0.4
	c0.6,0.4,1.1,0.9,1.5,1.5c4.5,7.5,8.7,14.8,13,22.2c0.5,0.8,0.7,1.7,0.7,2.6c0.1,5.3,0,10.5,0,15.8L40.6,44.7L40.6,44.7z"/>
<path class="st0" d="M55.6,0.6c-2.3,3.8-4.6,7.5-6.8,11.3c-2.1,3.5-4.1,7-6.1,10.4c-0.2,0.5-0.8,0.7-1.3,0.4
	c-0.2-0.1-0.4-0.3-0.4-0.4c-4-6.6-7.7-13.3-11.6-20c-0.4-0.7-1.2-1.5-0.7-2h26.7L55.6,0.6z M46.5,5.6H37l4.7,8.1L46.5,5.6z"/>
<path class="st0" d="M46,43.1c0,0.9-0.7,1.6-1.6,1.6c-0.9,0-1.6-0.7-1.6-1.6l0,0c0-0.9,0.7-1.6,1.6-1.6l0,0
	C45.3,41.5,46,42.2,46,43.1L46,43.1z M45.7,43.1c0-0.7-0.6-1.3-1.3-1.3l0,0c-0.7,0-1.3,0.6-1.3,1.3s0.6,1.3,1.3,1.3l0,0
	C45.1,44.4,45.7,43.9,45.7,43.1L45.7,43.1L45.7,43.1z"/>
<path class="st0" d="M44.1,43.3L44,43.9h-0.3v-1.7c0.3,0,0.6,0,0.9,0c0.2,0,0.4,0.2,0.4,0.4c0,0.1,0,0.2-0.1,0.3
	c0,0.1-0.1,0.1-0.1,0.2l0.4,0.8c-0.4,0.1-0.4,0.1-0.5-0.2S44.5,43.2,44.1,43.3z M44.6,42.8c0-0.1-0.1-0.3-0.2-0.3l0,0
	c-0.2,0-0.2,0.1-0.2,0.2s0.1,0.3,0.2,0.2C44.4,42.9,44.5,42.9,44.6,42.8L44.6,42.8z"/>
</svg>
