<svg id="Слой_1" data-name="Слой 1" xmlns="http://www.w3.org/2000/svg" viewBox="0 0 67.45 45"><title>fortis</title><path d="M62.22,29.46l-1.3-.08c.57-1.08.7-1.12,1.68-.55a2.8,2.8,0,0,0,2.76,0,.71.71,0,0,0,.47-.69c0-.31-.27-.45-.52-.53-.94-.32-1.9-.6-2.82-1-.69-.27-1.62-.48-1.54-1.43s1-1,1.73-1.22a12.76,12.76,0,0,1,4.35.08c-.48.66-.89,1.15-1.73.49A2.33,2.33,0,0,0,63,24.52a.59.59,0,0,0-.45.48.55.55,0,0,0,.43.59c1,.36,2,.71,3,1a3.12,3.12,0,0,1,1.43.83v.79a1.74,1.74,0,0,1-1.57,1.21c-.34.07-.71,0-1,.18h-1.6C62.93,29.4,62.54,29.64,62.22,29.46Z" style="fill:#565656"/><path d="M0,29.44l.44-.17a11.33,11.33,0,0,1,2.74,0c.25,0,.33.2.42.38H.31C.19,29.63-.06,29.75,0,29.44Z" style="fill:#565656"/><path d="M44.62,29.25c.25,0,.33.2.42.38h-3.6c.11-.17.19-.36.44-.37A11.37,11.37,0,0,1,44.62,29.25Z" style="fill:#565656"/><path d="M55.41,29.26c.24,0,.33.2.43.37h-3.6c.09-.18.18-.37.42-.38A12.16,12.16,0,0,1,55.41,29.26Z" style="fill:#565656"/><path d="M29.42,29.24c.25,0,.33.2.41.39h-3.4c0-.18,0-.33.25-.36A10.12,10.12,0,0,1,29.42,29.24Z" style="fill:#565656"/><path d="M32.83,29.63q0-.09,0-.19c.61-.56,1.33-.14,2-.2.25,0,.33.2.42.39Z" style="fill:#565656"/><path d="M3.19,29.25a4.51,4.51,0,0,1-2.74,0c.51-.1.56-.45.55-.89,0-1-.06-1.91,0-2.86a1.5,1.5,0,0,0-.76-1.61H6.34c.38,0,.74,0,.7.53,0,.4-.12.57-.52.32-1-.67-2.2-.35-3.31-.38-.87,0-.47.7-.52,1.11s-.17.84.51.81a4.29,4.29,0,0,0,2.52-.41,1.68,1.68,0,0,1,0,1.22,3.45,3.45,0,0,0-1.64-.37c-.46.09-1.16-.28-1.35.25a3.2,3.2,0,0,0,0,2C2.83,29.11,3.05,29.17,3.19,29.25Z" style="fill:#565656"/><path d="M44.62,29.25a4.5,4.5,0,0,1-2.74,0c.43-.1.57-.36.56-.79,0-1.15,0-2.31,0-3.46,0-.52-.17-.66-.69-.69a4.3,4.3,0,0,0-2.37.59c-.31-.74-.16-1,.67-1q3.2.07,6.4,0c.73,0,1,.21.73,1a4.61,4.61,0,0,0-2.42-.57c-.45,0-.66.15-.66.63q0,1.78,0,3.56A.65.65,0,0,0,44.62,29.25Z" style="fill:#565656"/><path d="M55.41,29.26a4.52,4.52,0,0,1-2.74,0c.43-.1.54-.39.54-.81,0-1.15,0-2.3,0-3.45a1.18,1.18,0,0,0-.6-1.06h3a1.22,1.22,0,0,0-.74,1.37c0,1,0,2,0,3.06C54.85,28.8,54.9,29.16,55.41,29.26Z" style="fill:#565656"/><path d="M19.79,24.55a7,7,0,0,0-6.87.23c-1.63.94-1.57,2.84,0,3.88a11.31,11.31,0,0,0,2.69,1h2.2c.63-.35,1.38-.38,2-.77a2.57,2.57,0,0,0,1.51-2.17A2.39,2.39,0,0,0,19.79,24.55Zm-3.27,4.61a2.4,2.4,0,0,1-2.69-2.42c0-1.53,1-2.47,2.73-2.46s2.66.89,2.67,2.4A2.39,2.39,0,0,1,16.52,29.16Z" style="fill:#565656"/><path d="M31.93,26.87c.83-.47,2-.44,1.91-1.5s-1.22-1-2-1.27h-.1a34.39,34.39,0,0,0-5.19-.19c.31.37.76.49.72,1-.08,1.18,0,2.37,0,3.56a.67.67,0,0,1-.56.78,4.54,4.54,0,0,0,2.74,0c-.41-.36-.7-2-.34-2.2.68-.37,1.24-.06,1.74.47s1.33,1.29,2,1.93c.66-.12,1.36.2,2-.2A20.54,20.54,0,0,1,31.93,26.87Zm-2.17-.4c-.8,0-.8,0-.8-1.21-.06-.52,0-1,.84-.93,1.19.08,2.12.48,2.16,1.07S31.06,26.49,29.76,26.47Z" style="fill:#565656"/><rect x="19.55" y="19.58" width="28.35" height="2.15" style="fill:#565656"/><rect x="21.78" y="17.46" width="23.89" height="1.7" style="fill:#565656"/><rect x="23.09" y="15.81" width="21.27" height="1.14" style="fill:#565656"/><rect x="32.06" y="14.62" width="3.32" height="0.74" style="fill:#565656"/></svg>