<svg id="Слой_1" data-name="Слой 1" xmlns="http://www.w3.org/2000/svg" viewBox="0 0 67.45 45"><title>Y</title><path d="M40.62,44.73H28.17a.21.21,0,0,1-.2-.15,7.58,7.58,0,0,1-.47-1.92c0-4.9,0-9.8-.07-14.7a8.93,8.93,0,0,0-1.1-4.07C23.67,19,20.86,14.22,18.08,9.41,16.48,6.67,14.82,4,13.18,1.23,12.82.52,12.11.46,16.71.41c2.63,0,3.36.07,6.44,0a3.69,3.69,0,0,1,2.46.41,6.36,6.36,0,0,1,1.51,1.52q6.5,11,12.84,22.07A5.42,5.42,0,0,1,40.67,27c.06,5.25.05,10.5,0,15.76l0,1.9A0,0,0,0,1,40.62,44.73Z" style="fill:#565656"/><path d="M55.57.59C53.31,4.36,51,8.12,48.77,11.9c-2.06,3.47-4.08,7-6.13,10.44a1,1,0,0,1-1.79,0C37,15.66,33.25,9,29.43,2.31c-.42-.73-1.2-1.5-.73-2H55.43Zm-9.11,5H37l4.7,8.09Z" style="fill:#565656"/><path d="M46,43.11a1.63,1.63,0,0,1-3.27,0,1.64,1.64,0,0,1,1.65-1.63A1.62,1.62,0,0,1,46,43.11Zm-.3,0a1.32,1.32,0,0,0-1.34-1.33,1.32,1.32,0,1,0,0,2.64A1.31,1.31,0,0,0,45.72,43.11Z" style="fill:#565656"/><path d="M44.11,43.3l-.06.58H43.7V42.23a7.7,7.7,0,0,1,.86,0,.43.43,0,0,1,.34.71,1.69,1.69,0,0,1-.12.16l.39.76c-.4.07-.4.07-.54-.2S44.46,43.24,44.11,43.3Zm.45-.5a.26.26,0,0,0-.27-.29c-.15,0-.2.08-.2.22s.08.27.22.23A.9.9,0,0,0,44.56,42.81Z" style="fill:#565656"/></svg>