<?xml version="1.0" encoding="UTF-8" standalone="no"?>
<svg
   xmlns:dc="http://purl.org/dc/elements/1.1/"
   xmlns:cc="http://creativecommons.org/ns#"
   xmlns:rdf="http://www.w3.org/1999/02/22-rdf-syntax-ns#"
   xmlns:svg="http://www.w3.org/2000/svg"
   xmlns="http://www.w3.org/2000/svg"
   viewBox="0 0 786.56 311.04001"
   height="311.04001"
   width="786.56"
   xml:space="preserve"
   id="svg2"
   version="1.1"><metadata
     id="metadata8"><rdf:RDF><cc:Work
         rdf:about=""><dc:format>image/svg+xml</dc:format><dc:type
           rdf:resource="http://purl.org/dc/dcmitype/StillImage" /></cc:Work></rdf:RDF></metadata><defs
     id="defs6" /><g
     transform="matrix(1.3333333,0,0,-1.3333333,0,311.04)"
     id="g10"><g
       transform="scale(0.1)"
       id="g12"><path
         id="path14"
         style="fill:#0b0c0b;fill-opacity:1;fill-rule:evenodd;stroke:none"
         d="m 842.148,718.301 h 794.582 c 80.03,0 149.34,0.82 208.48,2.469 77.83,1.66 148.24,9.628 211.23,24.21 51.98,11.282 95.99,33.282 132.02,66 40.43,36.579 69.04,93.52 86.36,170.801 13.48,57.479 20.08,158.429 20.08,303.099 0,113.86 -3.85,193.9 -11.28,240.11 -15.68,95.43 -48.13,164.75 -97.36,207.65 -46.21,39.88 -118.27,65.46 -216.19,76.74 -50.32,5.78 -161.72,8.8 -334.17,8.8 H 1116.95 842.148 v -274.02 l 793.752,-0.75 c 112.76,-0.2 187.27,-4.59 223.88,-12.92 45.61,-10.37 75.37,-39.06 88.57,-86.91 10.72,-38.24 16.23,-98.19 16.23,-179.6 0,-76.47 -5.23,-132.3 -15.41,-167.78 -13.47,-48.68 -46.2,-77.56 -98.19,-86.08 -46.75,-7.43 -117.43,-11.292 -212.05,-11.292 h -466.47 v 1.212 h -55.51 v 389.39 H 842.148 V 1000.04 718.301" /><path
         id="path16"
         style="fill:#0b0c0b;fill-opacity:1;fill-rule:evenodd;stroke:none"
         d="M 2865.75,1537.64 V 718.301 h 352.05 v 819.339 h 1863.38 v 94.46 c 0,162.56 -103.93,186.08 -250.41,186.08 h -2679.2 c 27.33,-12.22 52.9,-27.52 75.17,-46.74 67.47,-58.79 98.93,-147.69 113.64,-233.8 h 525.37" /><path
         id="path18"
         style="fill:#0b0c0b;fill-opacity:1;fill-rule:evenodd;stroke:none"
         d="m 3798.95,1334.66 c 17.61,-66.55 54.19,-113.32 109.47,-140.27 44.01,-21.45 119.09,-33.83 224.71,-37.13 45.1,-0.82 134.49,-4.67 267.61,-11.28 136.42,-6.32 223.88,-9.62 262.66,-9.62 60.51,-1.1 99.02,-9.36 115.24,-25.03 11.83,-11.27 17.61,-30.8 17.61,-58.58 0,-40.99 -9.63,-67.391 -28.88,-79.219 -12.93,-7.972 -40.71,-13.472 -83.07,-16.769 -22.55,-1.102 -105.34,-1.934 -248.08,-2.481 -132.29,0.547 -215.08,2.199 -248.91,4.949 -22.01,1.93 -40.43,8.25 -55.01,18.43 -22.55,15.129 -33.56,50.05 -33.01,104.79 h -324.54 v -58.03 c 0,-39.881 2.2,-74.818 6.33,-105.619 8.25,-60.781 33.83,-107.821 77.56,-141.09 40.15,-31.082 106.43,-51.992 198.85,-62.711 77.28,-9.078 201.06,-13.762 370.76,-13.762 280.26,0 451.61,9.082 514.04,27.512 63.26,18.148 108.92,52.262 136.97,102.32 27.78,50.328 41.81,130.09 41.81,238.45 0,53.91 -5.51,102.87 -16.23,147.7 -10.73,46.76 -35.48,84.43 -74.81,113.59 -33.83,25.31 -85.26,42.91 -153.75,53.09 -52.81,7.97 -174.37,15.12 -364.97,20.9 -211.23,6.6 -329.5,13.2 -355.36,20.35 -28.34,7.77 -43.87,28.13 -46.39,61.07 h -325.09 l -0.09,-12.94 c 0,-55.83 4.95,-102.04 14.57,-138.62" /><path
         id="path20"
         style="fill:#acaaa9;fill-opacity:1;fill-rule:evenodd;stroke:none"
         d="m 5183.16,1683.04 c 34.26,-29.9 63.94,-61.46 88.59,-94.36 24.66,-32.89 44.22,-66.98 58.5,-101.84 75.92,-185.31 -0.26,-375.03 -144.75,-545.84 -1.94,-14.289 -4.34,-28.52 -7.27,-42.531 205.76,193.801 338.63,423.211 247.31,646.131 -14.02,34.23 -33.22,67.69 -57.44,99.98 -24.2,32.29 -53.31,63.29 -86.96,92.63 -279.05,243.47 -820.8,341.57 -1300.91,365.79 -669.93,33.78 -1383.32,-59.24 -1996.34,-211.81 l -3.66,-0.92 h 59.91 c 572.63,124.86 1212.61,195.93 1817.78,165.38 319.89,-16.12 666.65,-64.47 947.82,-165.38 h 25.03 c 84.05,0 180.34,-6.18 247,-63.73 35.26,-30.45 55.69,-69.21 66.2,-111.54 13.56,-10.37 26.65,-21.02 39.19,-31.96" /><path
         id="path22"
         style="fill:#0b0c0b;fill-opacity:1;fill-rule:evenodd;stroke:none"
         d="m 2016.06,1915.9 c 1490.02,370.84 3009.69,256.26 3393.59,-255.83 181.72,-242.4 76.35,-530.5 -242.98,-806.05 -6.51,-20.571 -14.56,-40.161 -24.46,-58.098 -17.34,-30.961 -39.36,-56.82 -65.11,-77.934 636.08,353.062 922.93,769.142 674.85,1100.072 -383.91,512.09 -1903.59,626.66 -3393.59,255.82 -218.87,-54.47 -424.94,-116.39 -616.04,-184.01 24.8,-0.23 49.61,-0.57 74.41,-1.07 l -3.29,1.47 h 102.71 c 32.99,8.71 66.3,17.26 99.91,25.63" /><path
         id="path24"
         style="fill:#acaaa9;fill-opacity:1;fill-rule:evenodd;stroke:none"
         d="m 720.84,725.371 c -36.442,25.488 -68,52.418 -94.238,80.481 -26.223,28.046 -47.032,57.117 -62.223,86.867 -98.918,193.611 -24.168,340.701 198.66,509.051 v 14.66 C 487.309,1237.47 350.93,1062.84 463.012,843.449 c 14.929,-29.199 35.347,-57.738 61.109,-85.277 25.738,-27.543 56.707,-53.973 92.5,-79 C 913.441,471.52 1489.7,387.859 2000.39,367.199 c 712.59,-28.828 1471.42,50.52 2123.49,180.641 105.84,21.121 211.5,44.109 316.15,68.91 h -24.37 c -40.6,-8.66 -81.27,-17.051 -121.96,-25.172 C 3629.44,459.02 2856.41,378.199 2130.49,407.57 1610.26,428.602 1023.22,513.84 720.84,725.371" /><path
         id="path26"
         style="fill:#0b0c0b;fill-opacity:1;fill-rule:evenodd;stroke:none"
         d="M 4106.46,514.77 C 2521.54,198.48 905.078,296.199 496.719,732.961 286.621,957.672 349.031,1185.45 760.641,1438.47 v 54.3 C 85.1406,1191.8 -28.6992,862.34 111.02,574.219 447.781,-120.199 2175.44,-63.8516 3742.36,332.031 c 347.98,87.91 616.62,188.309 879.97,272.719 h -112.77 c -129.16,-32.059 -263.68,-62.148 -403.1,-89.98" /></g></g></svg>