<svg id="Layer_1" data-name="Layer 1" xmlns="http://www.w3.org/2000/svg" viewBox="0 0 724.09 111.88"><defs><style>.cls-1{fill:#f0f0f0;}.cls-1,.cls-2,.cls-3{fill-rule:evenodd;}.cls-2{fill:#d1d0d0;}.cls-3{fill:#fff;}.cls-4{fill:none;stroke:#fff;stroke-miterlimit:2.61;stroke-width:0.22px;}.cls-5{fill:#8b8b8c;}.cls-6{fill:#eeeeed;}.cls-7{fill:#8a8b8b;}</style></defs><title>soo</title><polygon class="cls-1" points="371.02 111.88 373.9 111.8 376.75 111.59 379.55 111.23 382.32 110.74 385.02 110.12 387.68 109.37 390.28 108.48 392.83 107.48 395.32 106.35 397.74 105.12 400.08 103.76 402.36 102.31 404.55 100.74 406.66 99.08 408.7 97.33 410.64 95.46 412.51 93.52 414.27 91.48 415.93 89.36 417.49 87.18 418.95 84.89 420.3 82.55 421.53 80.14 422.66 77.65 423.66 75.1 424.55 72.5 425.31 69.83 425.93 67.14 426.42 64.36 426.78 61.57 426.98 58.72 427.06 55.84 426.98 52.97 426.78 50.14 426.42 47.34 425.93 44.61 425.31 41.91 424.55 39.27 423.66 36.66 422.66 34.13 421.53 31.66 420.3 29.25 418.95 26.93 417.49 24.64 415.93 22.45 414.27 20.36 412.51 18.32 410.64 16.38 408.7 14.53 406.66 12.78 404.55 11.11 402.36 9.55 400.08 8.1 397.74 6.75 395.32 5.53 392.83 4.4 390.28 3.4 387.68 2.51 385.02 1.75 382.32 1.13 379.55 0.64 376.75 0.28 373.9 0.08 371.02 0 368.15 0.08 365.3 0.28 362.51 0.64 359.75 1.13 357.05 1.75 354.39 2.51 351.81 3.4 349.26 4.4 346.79 5.53 344.39 6.75 342.05 8.1 339.79 9.55 337.6 11.11 335.49 12.78 333.47 14.53 331.52 16.38 329.68 18.32 327.92 20.36 326.26 22.45 324.71 24.64 323.26 26.93 321.92 29.25 320.67 31.66 319.56 34.13 318.56 36.66 317.69 39.27 316.94 41.91 316.32 44.61 315.82 47.34 315.47 50.14 315.26 52.97 315.18 55.84 315.26 58.72 315.47 61.57 315.82 64.36 316.32 67.14 316.94 69.83 317.69 72.5 318.56 75.1 319.56 77.65 320.67 80.14 321.92 82.55 323.26 84.89 324.71 87.18 326.26 89.36 327.92 91.48 329.68 93.52 331.52 95.46 333.47 97.33 335.49 99.08 337.6 100.74 339.79 102.31 342.05 103.76 344.39 105.12 346.79 106.35 349.26 107.48 351.81 108.48 354.39 109.37 357.05 110.12 359.75 110.74 362.51 111.23 365.3 111.59 368.15 111.8 371.02 111.88 371.02 111.88 371.02 111.88"/><polygon class="cls-2" points="296.18 111.88 299.05 111.8 301.9 111.59 304.69 111.23 307.45 110.74 310.14 110.12 312.81 109.37 315.39 108.48 317.94 107.48 320.41 106.35 322.81 105.12 325.15 103.76 327.41 102.31 329.6 100.74 331.71 99.08 333.73 97.33 335.68 95.46 337.52 93.52 339.28 91.48 340.94 89.36 342.49 87.18 343.94 84.89 345.28 82.55 346.52 80.14 347.64 77.65 348.64 75.1 349.51 72.5 350.26 69.83 350.88 67.14 351.37 64.36 351.73 61.57 351.94 58.72 352.02 55.84 351.94 52.97 351.73 50.14 351.37 47.34 350.88 44.61 350.26 41.91 349.51 39.27 348.64 36.66 347.64 34.13 346.52 31.66 345.28 29.25 343.94 26.93 342.49 24.64 340.94 22.45 339.28 20.36 337.52 18.32 335.68 16.38 333.73 14.53 331.71 12.78 329.6 11.11 327.41 9.55 325.15 8.1 322.81 6.75 320.41 5.53 317.94 4.4 315.39 3.4 312.81 2.51 310.14 1.75 307.45 1.13 304.69 0.64 301.9 0.28 299.05 0.08 296.18 0 293.3 0.08 290.44 0.28 287.65 0.64 284.88 1.13 282.18 1.75 279.52 2.51 276.92 3.4 274.37 4.4 271.88 5.53 269.46 6.75 267.12 8.1 264.84 9.55 262.65 11.11 260.54 12.78 258.5 14.53 256.56 16.38 254.69 18.32 252.93 20.36 251.27 22.45 249.71 24.64 248.25 26.93 246.9 29.25 245.67 31.66 244.54 34.13 243.54 36.66 242.65 39.27 241.89 41.91 241.27 44.61 240.78 47.34 240.42 50.14 240.22 52.97 240.14 55.84 240.22 58.72 240.42 61.57 240.78 64.36 241.27 67.14 241.89 69.83 242.65 72.5 243.54 75.1 244.54 77.65 245.67 80.14 246.9 82.55 248.25 84.89 249.71 87.18 251.27 89.36 252.93 91.48 254.69 93.52 256.56 95.46 258.5 97.33 260.54 99.08 262.65 100.74 264.84 102.31 267.12 103.76 269.46 105.12 271.88 106.35 274.37 107.48 276.92 108.48 279.52 109.37 282.18 110.12 284.88 110.74 287.65 111.23 290.44 111.59 293.3 111.8 296.18 111.88 296.18 111.88 296.18 111.88"/><polygon class="cls-1" points="327.05 21.45 356.77 21.45 356.77 18.42 329.62 18.42 327.05 21.45 327.05 21.45 327.05 21.45"/><polygon class="cls-1" points="322.6 28.21 356.77 28.21 356.77 25.17 324.39 25.17 322.6 28.21 322.6 28.21 322.6 28.21"/><polygon class="cls-1" points="319.28 34.95 356.77 34.95 356.77 31.91 320.6 31.91 319.28 34.95 319.28 34.95 319.28 34.95"/><polygon class="cls-1" points="316.99 41.7 356.77 41.7 356.77 38.66 317.94 38.66 316.99 41.7 316.99 41.7 316.99 41.7"/><polygon class="cls-1" points="318.31 74.34 356.87 74.34 356.87 71.31 317.37 71.31 318.31 74.34 318.31 74.34 318.31 74.34"/><polygon class="cls-1" points="321.17 81.1 356.87 81.1 356.87 78.06 319.75 78.06 321.17 81.1 321.17 81.1 321.17 81.1"/><polygon class="cls-1" points="325.17 87.84 356.87 87.84 356.87 84.8 323.26 84.8 325.17 87.84 325.17 87.84 325.17 87.84"/><polygon class="cls-1" points="330.68 94.59 356.87 94.59 356.87 91.53 328.01 91.53 330.68 94.59 330.68 94.59 330.68 94.59"/><polygon class="cls-1" points="315.65 48.44 356.77 48.44 356.77 45.4 316.24 45.4 315.65 48.44 315.65 48.44 315.65 48.44"/><polygon class="cls-1" points="340.71 67.61 356.39 67.61 356.39 64.57 341.28 64.57 340.71 67.61 340.71 67.61 340.71 67.61"/><polygon class="cls-1" points="341.96 60.87 356.39 60.87 356.39 57.82 342.52 57.82 341.96 60.87 341.96 60.87 341.96 60.87"/><polygon class="cls-1" points="314.62 57.82 318.69 57.82 318.69 60.87 314.81 60.87 314.62 57.82 314.62 57.82 314.62 57.82"/><polygon class="cls-3" points="307.01 54.14 306.75 54.12 306.48 54.08 306.24 54.04 305.99 54 305.77 53.97 305.52 53.93 305.28 53.89 305.01 53.85 304.75 53.82 304.45 53.8 304.11 53.78 303.75 53.76 303.35 53.76 302.92 53.78 302.43 53.82 301.88 53.85 301.5 53.91 301.14 53.97 300.82 54.08 300.54 54.19 300.28 54.33 300.03 54.48 299.84 54.66 299.67 54.83 299.56 55.04 299.46 55.25 299.43 55.48 299.43 55.7 299.48 55.95 299.56 56.19 299.71 56.44 299.9 56.68 300.28 57.04 300.73 57.33 301.26 57.57 301.82 57.78 302.43 57.97 303.05 58.17 303.67 58.4 304.28 58.65 304.84 58.97 305.37 59.36 305.84 59.84 306.24 60.42 306.54 61.14 306.73 61.99 306.81 63.01 306.73 64.19 306.6 65.08 306.37 65.85 306.07 66.57 305.69 67.19 305.26 67.74 304.77 68.21 304.24 68.63 303.65 68.99 303.05 69.27 302.43 69.52 301.79 69.7 301.13 69.85 300.48 69.97 299.86 70.02 299.24 70.06 298.65 70.08 297.84 70.08 297.09 70.06 296.43 70.06 295.8 70.04 295.24 70.02 294.73 69.99 294.28 69.95 293.84 69.89 293.45 69.85 293.09 69.78 292.73 69.72 292.41 69.63 292.09 69.55 291.79 69.44 291.48 69.33 291.16 69.21 292.01 65.04 292.18 65.08 292.39 65.14 292.65 65.21 292.97 65.29 293.31 65.36 293.69 65.44 294.11 65.53 294.56 65.61 295.03 65.68 295.52 65.76 296.03 65.82 296.56 65.87 297.11 65.89 297.65 65.91 298.2 65.91 298.75 65.89 299.3 65.78 299.73 65.63 300.07 65.42 300.33 65.16 300.52 64.89 300.67 64.59 300.77 64.29 300.84 64 300.88 63.46 300.71 62.99 300.39 62.61 299.92 62.29 299.35 62.01 298.69 61.72 297.95 61.46 297.22 61.16 296.46 60.82 295.75 60.42 295.09 59.93 294.48 59.34 294.01 58.63 293.67 57.78 293.5 56.76 293.52 55.55 293.62 54.82 293.75 54.12 293.94 53.48 294.16 52.87 294.46 52.31 294.8 51.81 295.2 51.34 295.67 50.93 296.22 50.57 296.82 50.27 297.5 49.98 298.26 49.78 299.11 49.61 300.03 49.48 301.05 49.4 302.16 49.38 302.86 49.38 303.5 49.4 304.09 49.42 304.62 49.44 305.09 49.48 305.52 49.51 305.9 49.55 306.24 49.59 306.56 49.63 306.82 49.68 307.07 49.72 307.3 49.76 307.48 49.8 307.65 49.81 307.82 49.85 307.98 49.87 307.01 54.14 307.01 54.14 307.01 54.14"/><polyline class="cls-4" points="307.01 54.14 307.01 54.14 306.75 54.12 306.48 54.08 306.24 54.04 305.99 54 305.77 53.97 305.52 53.93 305.28 53.89 305.01 53.85 304.75 53.82 304.45 53.8 304.11 53.78 303.75 53.76 303.35 53.76 302.92 53.78 302.43 53.82 301.88 53.85 301.88 53.85 301.5 53.91 301.14 53.97 300.82 54.08 300.54 54.19 300.28 54.33 300.03 54.48 299.84 54.66 299.67 54.83 299.56 55.04 299.46 55.25 299.43 55.48 299.43 55.7 299.48 55.95 299.56 56.19 299.71 56.44 299.9 56.68 299.9 56.68 300.28 57.04 300.73 57.33 301.26 57.57 301.82 57.78 302.43 57.97 303.05 58.17 303.67 58.4 304.28 58.65 304.84 58.97 305.37 59.36 305.84 59.84 306.24 60.42 306.54 61.14 306.73 61.99 306.81 63.01 306.73 64.19 306.73 64.19 306.6 65.08 306.37 65.85 306.07 66.57 305.69 67.19 305.26 67.74 304.77 68.21 304.24 68.63 303.65 68.99 303.05 69.27 302.43 69.52 301.79 69.7 301.13 69.85 300.48 69.97 299.86 70.02 299.24 70.06 298.65 70.08 298.65 70.08 297.84 70.08 297.09 70.06 296.43 70.06 295.8 70.04 295.24 70.02 294.73 69.99 294.28 69.95 293.84 69.89 293.45 69.85 293.09 69.78 292.73 69.72 292.41 69.63 292.09 69.55 291.79 69.44 291.48 69.33 291.16 69.21 292.01 65.04 292.01 65.04 292.18 65.08 292.39 65.14 292.65 65.21 292.97 65.29 293.31 65.36 293.69 65.44 294.11 65.53 294.56 65.61 295.03 65.68 295.52 65.76 296.03 65.82 296.56 65.87 297.11 65.89 297.65 65.91 298.2 65.91 298.75 65.89 298.75 65.89 299.3 65.78 299.73 65.63 300.07 65.42 300.33 65.16 300.52 64.89 300.67 64.59 300.77 64.29 300.84 64 300.84 64 300.88 63.46 300.71 62.99 300.39 62.61 299.92 62.29 299.35 62.01 298.69 61.72 297.95 61.46 297.22 61.16 296.46 60.82 295.75 60.42 295.09 59.93 294.48 59.34 294.01 58.63 293.67 57.78 293.5 56.76 293.52 55.55 293.52 55.55 293.62 54.82 293.75 54.12 293.94 53.48 294.16 52.87 294.46 52.31 294.8 51.81 295.2 51.34 295.67 50.93 296.22 50.57 296.82 50.27 297.5 49.98 298.26 49.78 299.11 49.61 300.03 49.48 301.05 49.4 302.16 49.38 302.16 49.38 302.86 49.38 303.5 49.4 304.09 49.42 304.62 49.44 305.09 49.48 305.52 49.51 305.9 49.55 306.24 49.59 306.56 49.63 306.82 49.68 307.07 49.72 307.3 49.76 307.48 49.8 307.65 49.81 307.82 49.85 307.98 49.87 307.01 54.14"/><polygon class="cls-3" points="311.49 45.21 316.71 45.21 315.94 49.78 319.09 49.78 318.41 54.04 315.09 53.95 313.28 64.48 313.26 64.85 313.35 65.17 313.54 65.42 313.79 65.63 314.13 65.76 314.5 65.87 314.92 65.95 315.37 65.99 315.79 65.97 316.16 65.93 316.5 65.87 316.81 65.8 317.05 65.72 317.22 65.67 317.33 65.63 317.37 65.61 316.71 69.12 316.58 69.21 316.45 69.29 316.32 69.36 316.18 69.44 316.05 69.5 315.9 69.55 315.73 69.61 315.56 69.67 315.37 69.72 315.18 69.76 314.96 69.8 314.73 69.83 314.49 69.87 314.2 69.91 313.9 69.95 313.58 69.99 312.14 69.99 311.39 69.93 310.73 69.85 310.13 69.74 309.62 69.61 309.18 69.44 308.82 69.25 308.5 69.02 308.26 68.78 308.07 68.52 307.94 68.19 307.84 67.87 307.79 67.52 307.77 67.12 307.77 66.7 307.82 66.27 307.88 65.8 311.49 45.21 311.49 45.21 311.49 45.21"/><polyline class="cls-4" points="311.49 45.21 316.71 45.21 315.94 49.78 319.09 49.78 318.41 54.04 315.09 53.95 313.28 64.48 313.28 64.48 313.26 64.85 313.35 65.17 313.54 65.42 313.79 65.63 314.13 65.76 314.5 65.87 314.92 65.95 315.37 65.99 315.37 65.99 315.79 65.97 316.16 65.93 316.5 65.87 316.81 65.8 317.05 65.72 317.22 65.67 317.33 65.63 317.37 65.61 316.71 69.12 316.71 69.12 316.58 69.21 316.45 69.29 316.32 69.36 316.18 69.44 316.05 69.5 315.9 69.55 315.73 69.61 315.56 69.67 315.37 69.72 315.18 69.76 314.96 69.8 314.73 69.83 314.49 69.87 314.2 69.91 313.9 69.95 313.58 69.99 312.14 69.99 312.14 69.99 311.39 69.93 310.73 69.85 310.13 69.74 309.62 69.61 309.18 69.44 308.82 69.25 308.5 69.02 308.26 68.78 308.07 68.52 307.94 68.19 307.84 67.87 307.79 67.52 307.77 67.12 307.77 66.7 307.82 66.27 307.88 65.8 311.49 45.21"/><polygon class="cls-3" points="323.26 61.16 323.2 61.48 323.18 61.82 323.22 62.17 323.3 62.53 323.43 62.89 323.58 63.23 323.79 63.59 324.01 63.91 324.28 64.23 324.56 64.51 324.86 64.8 325.2 65.02 325.54 65.23 325.92 65.4 326.3 65.53 326.68 65.61 327.17 65.68 327.64 65.74 328.13 65.8 328.62 65.83 329.11 65.85 329.62 65.85 330.11 65.83 330.62 65.8 331.13 65.72 331.64 65.63 332.17 65.51 332.68 65.34 333.2 65.14 333.75 64.91 334.28 64.61 334.83 64.29 334.07 68.93 333.77 69.08 333.47 69.23 333.17 69.34 332.88 69.46 332.6 69.55 332.3 69.65 332 69.72 331.68 69.78 331.33 69.83 330.96 69.87 330.56 69.91 330.13 69.95 329.64 69.97 329.13 69.97 328.54 69.99 327.92 69.99 327 69.97 326.05 69.87 325.11 69.74 324.17 69.52 323.24 69.23 322.35 68.87 321.5 68.4 320.71 67.85 319.98 67.21 319.33 66.44 318.79 65.57 318.33 64.57 318.01 63.46 317.81 62.19 317.75 60.8 317.84 59.25 317.92 58.65 318.03 57.95 318.18 57.21 318.39 56.42 318.67 55.61 319.01 54.8 319.45 53.97 319.98 53.17 320.58 52.42 321.32 51.7 322.15 51.06 323.09 50.49 324.18 50.02 325.41 49.68 326.77 49.46 328.3 49.38 329.03 49.4 329.81 49.48 330.58 49.61 331.35 49.8 332.11 50.08 332.85 50.42 333.52 50.87 334.15 51.4 334.71 52.04 335.18 52.8 335.56 53.66 335.83 54.66 335.98 55.8 336 57.08 335.86 58.51 335.58 60.1 335.49 61.25 321.73 61.25 322.6 57.53 330.86 57.53 330.9 57.06 330.88 56.61 330.85 56.19 330.77 55.82 330.64 55.46 330.5 55.14 330.32 54.85 330.13 54.59 329.9 54.36 329.66 54.17 329.37 54 329.09 53.85 328.79 53.74 328.49 53.66 328.17 53.61 327.83 53.57 327.47 53.59 327.13 53.65 326.81 53.72 326.49 53.83 326.17 53.98 325.88 54.16 325.6 54.36 325.35 54.59 325.11 54.85 324.88 55.14 324.67 55.44 324.5 55.76 324.33 56.1 324.2 56.48 324.09 56.85 324.01 57.25 323.26 61.16 323.26 61.16 323.26 61.16"/><polyline class="cls-4" points="323.26 61.16 323.26 61.16 323.2 61.48 323.18 61.82 323.22 62.17 323.3 62.53 323.43 62.89 323.58 63.23 323.79 63.59 324.01 63.91 324.28 64.23 324.56 64.51 324.86 64.8 325.2 65.02 325.54 65.23 325.92 65.4 326.3 65.53 326.68 65.61 326.68 65.61 327.17 65.68 327.64 65.74 328.13 65.8 328.62 65.83 329.11 65.85 329.62 65.85 330.11 65.83 330.62 65.8 331.13 65.72 331.64 65.63 332.17 65.51 332.68 65.34 333.2 65.14 333.75 64.91 334.28 64.61 334.83 64.29 334.07 68.93 334.07 68.93 333.77 69.08 333.47 69.23 333.17 69.34 332.88 69.46 332.6 69.55 332.3 69.65 332 69.72 331.68 69.78 331.33 69.83 330.96 69.87 330.56 69.91 330.13 69.95 329.64 69.97 329.13 69.97 328.54 69.99 327.92 69.99 327.92 69.99 327 69.97 326.05 69.87 325.11 69.74 324.17 69.52 323.24 69.23 322.35 68.87 321.5 68.4 320.71 67.85 319.98 67.21 319.33 66.44 318.79 65.57 318.33 64.57 318.01 63.46 317.81 62.19 317.75 60.8 317.84 59.25 317.84 59.25 317.92 58.65 318.03 57.95 318.18 57.21 318.39 56.42 318.67 55.61 319.01 54.8 319.45 53.97 319.98 53.17 320.58 52.42 321.32 51.7 322.15 51.06 323.09 50.49 324.18 50.02 325.41 49.68 326.77 49.46 328.3 49.38 328.3 49.38 329.03 49.4 329.81 49.48 330.58 49.61 331.35 49.8 332.11 50.08 332.85 50.42 333.52 50.87 334.15 51.4 334.71 52.04 335.18 52.8 335.56 53.66 335.83 54.66 335.98 55.8 336 57.08 335.86 58.51 335.58 60.1 335.49 61.25 321.73 61.25 322.6 57.53 330.86 57.53 330.86 57.53 330.9 57.06 330.88 56.61 330.85 56.19 330.77 55.82 330.64 55.46 330.5 55.14 330.32 54.85 330.13 54.59 329.9 54.36 329.66 54.17 329.37 54 329.09 53.85 328.79 53.74 328.49 53.66 328.17 53.61 327.83 53.57 327.83 53.57 327.47 53.59 327.13 53.65 326.81 53.72 326.49 53.83 326.17 53.98 325.88 54.16 325.6 54.36 325.35 54.59 325.11 54.85 324.88 55.14 324.67 55.44 324.5 55.76 324.33 56.1 324.2 56.48 324.09 56.85 324.01 57.25 323.26 61.16"/><polygon class="cls-3" points="368.26 50.91 368.02 50.78 367.77 50.66 367.51 50.53 367.23 50.4 366.94 50.29 366.62 50.17 366.3 50.06 365.96 49.95 365.6 49.85 365.24 49.78 364.85 49.7 364.45 49.65 364.02 49.61 363.58 49.57 363.13 49.57 362.66 49.57 362.19 49.57 361.7 49.61 361.19 49.66 360.66 49.76 360.13 49.91 359.6 50.12 359.07 50.38 358.55 50.72 358.04 51.14 357.55 51.63 357.07 52.23 356.62 52.93 356.2 53.76 355.81 54.7 355.45 55.76 355.15 56.97 355.04 57.65 354.96 58.31 354.92 58.97 354.94 59.61 355 60.25 355.13 60.85 355.3 61.42 355.51 61.99 355.79 62.49 356.13 62.99 356.53 63.42 356.98 63.82 357.49 64.16 358.07 64.44 358.71 64.68 359.43 64.85 359.68 64.91 359.96 64.97 360.3 65 360.68 65.04 361.09 65.08 361.53 65.08 362 65.08 362.47 65.04 362.96 64.99 363.45 64.89 363.92 64.76 364.39 64.61 364.87 64.4 365.3 64.16 365.7 63.85 366.07 63.51 365.22 68.55 365.11 68.65 365 68.76 364.85 68.89 364.68 69 364.47 69.16 364.2 69.29 363.9 69.42 363.56 69.53 363.13 69.67 362.64 69.76 362.07 69.83 361.41 69.91 360.68 69.95 359.83 69.97 358.87 69.95 357.81 69.89 356.94 69.8 356.07 69.61 355.2 69.33 354.34 68.95 353.51 68.5 352.71 67.93 351.96 67.27 351.26 66.51 350.64 65.67 350.11 64.72 349.66 63.66 349.32 62.51 349.09 61.25 349.02 59.91 349.05 58.44 349.26 56.87 349.41 56.1 349.58 55.34 349.77 54.61 349.96 53.91 350.17 53.25 350.41 52.59 350.66 51.97 350.92 51.38 351.2 50.8 351.49 50.25 351.81 49.72 352.15 49.23 352.49 48.76 352.87 48.31 353.24 47.89 353.64 47.49 354.07 47.12 354.51 46.76 354.96 46.44 355.43 46.14 355.94 45.85 356.45 45.61 356.98 45.38 357.53 45.17 358.11 44.98 358.7 44.83 359.3 44.7 359.94 44.59 360.58 44.49 361.26 44.42 361.94 44.38 362.66 44.36 363.26 44.38 363.85 44.42 364.41 44.48 364.98 44.55 365.51 44.63 366.02 44.74 366.51 44.83 366.96 44.95 367.39 45.06 367.77 45.17 368.13 45.29 368.43 45.4 368.7 45.49 368.92 45.57 369.09 45.65 369.21 45.68 368.26 50.91 368.26 50.91 368.26 50.91"/><polyline class="cls-4" points="368.26 50.91 368.26 50.91 368.02 50.78 367.77 50.66 367.51 50.53 367.23 50.4 366.94 50.29 366.62 50.17 366.3 50.06 365.96 49.95 365.6 49.85 365.24 49.78 364.85 49.7 364.45 49.65 364.02 49.61 363.58 49.57 363.13 49.57 362.66 49.57 362.66 49.57 362.19 49.57 361.7 49.61 361.19 49.66 360.66 49.76 360.13 49.91 359.6 50.12 359.07 50.38 358.55 50.72 358.04 51.14 357.55 51.63 357.07 52.23 356.62 52.93 356.2 53.76 355.81 54.7 355.45 55.76 355.15 56.97 355.15 56.97 355.04 57.65 354.96 58.31 354.92 58.97 354.94 59.61 355 60.25 355.13 60.85 355.3 61.42 355.51 61.99 355.79 62.49 356.13 62.99 356.53 63.42 356.98 63.82 357.49 64.16 358.07 64.44 358.71 64.68 359.43 64.85 359.43 64.85 359.68 64.91 359.96 64.97 360.3 65 360.68 65.04 361.09 65.08 361.53 65.08 362 65.08 362.47 65.04 362.96 64.99 363.45 64.89 363.92 64.76 364.39 64.61 364.87 64.4 365.3 64.16 365.7 63.85 366.07 63.51 365.22 68.55 365.22 68.55 365.11 68.65 365 68.76 364.85 68.89 364.68 69 364.47 69.16 364.2 69.29 363.9 69.42 363.56 69.53 363.13 69.67 362.64 69.76 362.07 69.83 361.41 69.91 360.68 69.95 359.83 69.97 358.87 69.95 357.81 69.89 357.81 69.89 356.94 69.8 356.07 69.61 355.2 69.33 354.34 68.95 353.51 68.5 352.71 67.93 351.96 67.27 351.26 66.51 350.64 65.67 350.11 64.72 349.66 63.66 349.32 62.51 349.09 61.25 349.02 59.91 349.05 58.44 349.26 56.87 349.26 56.87 349.41 56.1 349.58 55.34 349.77 54.61 349.96 53.91 350.17 53.25 350.41 52.59 350.66 51.97 350.92 51.38 351.2 50.8 351.49 50.25 351.81 49.72 352.15 49.23 352.49 48.76 352.87 48.31 353.24 47.89 353.64 47.49 354.07 47.12 354.51 46.76 354.96 46.44 355.43 46.14 355.94 45.85 356.45 45.61 356.98 45.38 357.53 45.17 358.11 44.98 358.7 44.83 359.3 44.7 359.94 44.59 360.58 44.49 361.26 44.42 361.94 44.38 362.66 44.36 362.66 44.36 363.26 44.38 363.85 44.42 364.41 44.48 364.98 44.55 365.51 44.63 366.02 44.74 366.51 44.83 366.96 44.95 367.39 45.06 367.77 45.17 368.13 45.29 368.43 45.4 368.7 45.49 368.92 45.57 369.09 45.65 369.21 45.68 368.26 50.91"/><polygon class="cls-3" points="414.72 69.99 409.49 69.99 409.87 67.89 409.87 67.7 409.57 68.08 409.25 68.42 408.93 68.72 408.59 68.99 408.25 69.23 407.91 69.44 407.57 69.61 407.21 69.78 406.85 69.91 406.49 70 406.13 70.1 405.76 70.16 405.38 70.21 405.02 70.25 404.64 70.27 404.26 70.27 403.28 70.19 402.38 69.99 401.55 69.67 400.79 69.23 400.11 68.68 399.51 68.04 398.98 67.34 398.53 66.55 398.15 65.7 397.85 64.82 397.64 63.89 397.49 62.93 397.44 61.97 397.45 60.99 397.55 60.02 397.72 59.06 398 57.95 398.34 56.89 398.74 55.93 399.21 55.02 399.7 54.17 400.26 53.42 400.85 52.74 401.47 52.12 402.13 51.57 402.83 51.1 403.55 50.68 404.26 50.36 405.02 50.1 405.77 49.93 406.53 49.81 407.3 49.78 407.85 49.8 408.38 49.85 408.87 49.95 409.32 50.08 409.76 50.23 410.13 50.4 410.51 50.61 410.85 50.81 411.15 51.04 411.44 51.29 411.68 51.53 411.91 51.78 412.1 52.02 412.27 52.27 412.42 52.49 412.53 52.72 412.53 52.72 413.85 45.3 418.98 45.3 414.72 69.99 414.72 69.99 414.72 69.99"/><polyline class="cls-4" points="414.72 69.99 409.49 69.99 409.87 67.89 409.87 67.7 409.87 67.7 409.57 68.08 409.25 68.42 408.93 68.72 408.59 68.99 408.25 69.23 407.91 69.44 407.57 69.61 407.21 69.78 406.85 69.91 406.49 70 406.13 70.1 405.76 70.16 405.38 70.21 405.02 70.25 404.64 70.27 404.26 70.27 404.26 70.27 403.28 70.19 402.38 69.99 401.55 69.67 400.79 69.23 400.11 68.68 399.51 68.04 398.98 67.34 398.53 66.55 398.15 65.7 397.85 64.82 397.64 63.89 397.49 62.93 397.44 61.97 397.45 60.99 397.55 60.02 397.72 59.06 397.72 59.06 398 57.95 398.34 56.89 398.74 55.93 399.21 55.02 399.7 54.17 400.26 53.42 400.85 52.74 401.47 52.12 402.13 51.57 402.83 51.1 403.55 50.68 404.26 50.36 405.02 50.1 405.77 49.93 406.53 49.81 407.3 49.78 407.3 49.78 407.85 49.8 408.38 49.85 408.87 49.95 409.32 50.08 409.76 50.23 410.13 50.4 410.51 50.61 410.85 50.81 411.15 51.04 411.44 51.29 411.68 51.53 411.91 51.78 412.1 52.02 412.27 52.27 412.42 52.49 412.53 52.72 412.53 52.72 413.85 45.3 418.98 45.3 414.72 69.99"/><polygon class="cls-1" points="406.17 65.42 406.7 65.38 407.19 65.27 407.64 65.14 408.08 64.93 408.47 64.7 408.85 64.42 409.21 64.1 409.53 63.76 409.81 63.38 410.08 62.97 410.32 62.53 410.53 62.08 410.72 61.61 410.87 61.12 411 60.61 411.1 60.1 411.19 59.57 411.25 59.02 411.25 58.51 411.23 57.99 411.17 57.49 411.1 57.02 410.96 56.57 410.81 56.14 410.62 55.76 410.4 55.4 410.15 55.1 409.87 54.83 409.55 54.61 409.21 54.46 408.85 54.36 408.45 54.33 407.94 54.36 407.47 54.44 407.04 54.59 406.61 54.78 406.23 55.02 405.85 55.33 405.53 55.65 405.21 56 404.93 56.42 404.66 56.85 404.42 57.31 404.21 57.8 404.02 58.31 403.87 58.82 403.72 59.36 403.61 59.91 403.51 60.74 403.55 61.65 403.68 62.57 403.93 63.46 404.3 64.23 404.79 64.85 405.42 65.27 406.17 65.42 406.17 65.42 406.17 65.42"/><polygon class="cls-3" points="290.29 65.8 289.54 69.99 284.78 69.99 284.92 69.21 285.01 68.52 285.09 67.99 285.16 67.7 284.9 68 284.6 68.31 284.24 68.59 283.84 68.85 283.39 69.12 282.92 69.34 282.43 69.57 281.92 69.76 281.37 69.93 280.82 70.06 280.27 70.17 279.71 70.25 279.16 70.29 278.61 70.31 278.09 70.25 277.58 70.17 276.92 70 276.31 69.82 275.78 69.57 275.31 69.29 274.9 68.99 274.52 68.65 274.22 68.29 273.95 67.91 273.73 67.52 273.54 67.1 273.39 66.68 273.27 66.27 273.2 65.83 273.14 65.4 273.1 64.99 273.1 64.57 273.16 63.84 273.27 63.14 273.46 62.48 273.71 61.84 274.01 61.23 274.35 60.68 274.75 60.16 275.2 59.68 275.67 59.25 276.2 58.85 276.75 58.49 277.31 58.19 277.92 57.93 278.54 57.72 279.18 57.55 279.84 57.44 279.88 57.44 279.97 57.42 280.11 57.4 280.31 57.38 280.54 57.34 280.8 57.33 281.09 57.29 281.41 57.25 281.73 57.21 282.05 57.17 282.39 57.16 282.69 57.12 282.99 57.1 283.27 57.08 283.54 57.06 283.75 57.06 284.18 57.06 284.63 57.08 285.05 57.1 285.46 57.1 285.8 57.12 286.07 57.14 286.26 57.16 286.31 57.16 286.35 57.02 286.46 56.68 286.56 56.29 286.6 55.93 286.52 55.51 286.35 55.14 286.12 54.8 285.82 54.51 285.46 54.27 285.07 54.1 284.62 53.98 284.12 53.95 283.6 53.93 283.03 53.91 282.44 53.91 281.84 53.93 281.22 53.97 280.61 54.02 280.01 54.08 279.43 54.16 278.86 54.23 278.31 54.33 277.82 54.42 277.37 54.51 276.95 54.63 276.61 54.74 276.35 54.87 276.14 54.98 277.48 50.44 277.9 50.27 278.31 50.12 278.76 49.98 279.22 49.89 279.67 49.8 280.16 49.72 280.65 49.65 281.16 49.61 281.69 49.57 282.24 49.55 282.8 49.53 283.39 49.53 283.99 49.53 284.62 49.53 285.27 49.55 285.94 49.57 286.46 49.61 287.03 49.7 287.62 49.83 288.22 50 288.8 50.23 289.37 50.49 289.94 50.81 290.46 51.17 290.94 51.59 291.35 52.04 291.73 52.55 292.01 53.12 292.2 53.72 292.31 54.36 292.31 55.08 292.2 55.84 290.29 65.8 290.29 65.8 290.29 65.8"/><polyline class="cls-4" points="290.29 65.8 289.54 69.99 284.78 69.99 284.78 69.99 284.92 69.21 285.01 68.52 285.09 67.99 285.16 67.7 285.16 67.7 284.9 68 284.6 68.31 284.24 68.59 283.84 68.85 283.39 69.12 282.92 69.34 282.43 69.57 281.92 69.76 281.37 69.93 280.82 70.06 280.27 70.17 279.71 70.25 279.16 70.29 278.61 70.31 278.09 70.25 277.58 70.17 277.58 70.17 276.92 70 276.31 69.82 275.78 69.57 275.31 69.29 274.9 68.99 274.52 68.65 274.22 68.29 273.95 67.91 273.73 67.52 273.54 67.1 273.39 66.68 273.27 66.27 273.2 65.83 273.14 65.4 273.1 64.99 273.1 64.57 273.1 64.57 273.16 63.84 273.27 63.14 273.46 62.48 273.71 61.84 274.01 61.23 274.35 60.68 274.75 60.16 275.2 59.68 275.67 59.25 276.2 58.85 276.75 58.49 277.31 58.19 277.92 57.93 278.54 57.72 279.18 57.55 279.84 57.44 279.84 57.44 279.88 57.44 279.97 57.42 280.11 57.4 280.31 57.38 280.54 57.34 280.8 57.33 281.09 57.29 281.41 57.25 281.73 57.21 282.05 57.17 282.39 57.16 282.69 57.12 282.99 57.1 283.27 57.08 283.54 57.06 283.75 57.06 283.75 57.06 284.18 57.06 284.63 57.08 285.05 57.1 285.46 57.1 285.8 57.12 286.07 57.14 286.26 57.16 286.31 57.16 286.31 57.16 286.35 57.02 286.46 56.68 286.56 56.29 286.6 55.93 286.6 55.93 286.52 55.51 286.35 55.14 286.12 54.8 285.82 54.51 285.46 54.27 285.07 54.1 284.62 53.98 284.12 53.95 284.12 53.95 283.6 53.93 283.03 53.91 282.44 53.91 281.84 53.93 281.22 53.97 280.61 54.02 280.01 54.08 279.43 54.16 278.86 54.23 278.31 54.33 277.82 54.42 277.37 54.51 276.95 54.63 276.61 54.74 276.35 54.87 276.14 54.98 277.48 50.44 277.48 50.44 277.9 50.27 278.31 50.12 278.76 49.98 279.22 49.89 279.67 49.8 280.16 49.72 280.65 49.65 281.16 49.61 281.69 49.57 282.24 49.55 282.8 49.53 283.39 49.53 283.99 49.53 284.62 49.53 285.27 49.55 285.94 49.57 285.94 49.57 286.46 49.61 287.03 49.7 287.62 49.83 288.22 50 288.8 50.23 289.37 50.49 289.94 50.81 290.46 51.17 290.94 51.59 291.35 52.04 291.73 52.55 292.01 53.12 292.2 53.72 292.31 54.36 292.31 55.08 292.2 55.84 290.29 65.8"/><polygon class="cls-2" points="285.75 60.87 285.73 60.78 285.65 60.68 285.54 60.63 285.35 60.59 285.14 60.55 284.9 60.53 284.62 60.53 284.33 60.53 284.03 60.55 283.71 60.59 283.41 60.63 283.11 60.66 282.82 60.7 282.56 60.76 282.33 60.82 282.12 60.87 281.99 60.91 281.84 60.97 281.63 61.04 281.43 61.14 281.18 61.25 280.94 61.38 280.67 61.51 280.43 61.66 280.16 61.85 279.92 62.04 279.69 62.27 279.48 62.49 279.29 62.74 279.16 63.01 279.05 63.31 278.99 63.61 278.97 64.25 279.07 64.76 279.26 65.14 279.5 65.42 279.78 65.61 280.11 65.72 280.41 65.78 280.71 65.8 281.27 65.78 281.78 65.72 282.27 65.65 282.71 65.53 283.09 65.4 283.44 65.23 283.76 65.06 284.05 64.85 284.29 64.67 284.52 64.44 284.71 64.23 284.86 64 284.99 63.78 285.11 63.55 285.2 63.34 285.26 63.14 285.41 62.59 285.54 61.97 285.65 61.36 285.75 60.87 285.75 60.87 285.75 60.87"/><polygon class="cls-3" points="250.59 69.99 245.46 69.99 249.74 45.21 258.67 45.21 259.52 59.91 265.69 45.21 275.01 45.21 270.63 69.99 265.5 69.99 268.75 51.48 268.54 51.48 260.86 69.99 255.06 69.99 255.03 69.21 254.9 67.16 254.73 64.23 254.54 60.87 254.35 57.49 254.18 54.53 254.05 52.38 254.01 51.48 253.95 51.48 253.84 51.48 253.72 51.48 253.72 51.48 250.59 69.99 250.59 69.99 250.59 69.99"/><polyline class="cls-4" points="250.59 69.99 245.46 69.99 249.74 45.21 258.67 45.21 259.52 59.91 265.69 45.21 275.01 45.21 270.63 69.99 265.5 69.99 268.75 51.48 268.54 51.48 260.86 69.99 255.06 69.99 255.06 69.99 255.03 69.21 254.9 67.16 254.73 64.23 254.54 60.87 254.35 57.49 254.18 54.53 254.05 52.38 254.01 51.48 254.01 51.48 253.95 51.48 253.84 51.48 253.72 51.48 253.72 51.48 250.59 69.99"/><polygon class="cls-3" points="383.94 65.8 383.17 69.99 378.43 69.99 378.47 69.21 378.49 68.53 378.49 68.02 378.53 67.8 378.28 68.08 378 68.36 377.66 68.63 377.28 68.89 376.89 69.14 376.43 69.36 375.96 69.59 375.49 69.78 374.98 69.93 374.45 70.08 373.92 70.17 373.39 70.25 372.85 70.29 372.32 70.31 371.81 70.25 371.3 70.17 370.62 70 370.02 69.82 369.49 69.57 369 69.29 368.58 68.99 368.23 68.65 367.92 68.29 367.66 67.91 367.43 67.52 367.26 67.1 367.11 66.68 367.02 66.27 366.94 65.83 366.88 65.4 366.85 64.99 366.85 64.57 366.88 63.84 367 63.14 367.17 62.48 367.41 61.84 367.7 61.23 368.06 60.68 368.45 60.16 368.88 59.68 369.38 59.25 369.88 58.85 370.43 58.49 371.02 58.19 371.6 57.93 372.23 57.72 372.85 57.55 373.49 57.44 373.53 57.44 373.62 57.42 373.75 57.4 373.94 57.38 374.19 57.34 374.45 57.33 374.74 57.29 375.04 57.25 375.36 57.21 375.7 57.17 376.02 57.16 376.34 57.12 376.64 57.1 376.9 57.08 377.17 57.06 377.38 57.06 377.83 57.06 378.28 57.08 378.72 57.1 379.13 57.1 379.49 57.12 379.79 57.14 379.96 57.16 380.04 57.16 380.07 57.02 380.13 56.68 380.19 56.29 380.23 55.93 380.15 55.51 380 55.14 379.75 54.8 379.47 54.51 379.13 54.27 378.74 54.1 378.32 53.98 377.87 53.95 377.34 53.93 376.77 53.91 376.19 53.91 375.58 53.93 374.96 53.97 374.36 54.02 373.75 54.08 373.17 54.16 372.6 54.23 372.06 54.33 371.56 54.42 371.11 54.51 370.7 54.63 370.36 54.74 370.09 54.87 369.88 54.98 371.21 50.44 371.62 50.27 372.06 50.12 372.49 49.98 372.94 49.89 373.41 49.8 373.89 49.72 374.38 49.65 374.89 49.61 375.41 49.57 375.96 49.55 376.51 49.53 377.09 49.53 377.68 49.53 378.28 49.53 378.92 49.55 379.56 49.57 380.09 49.61 380.66 49.7 381.25 49.83 381.85 50 382.43 50.23 383.02 50.49 383.58 50.81 384.11 51.17 384.58 51.59 385.02 52.04 385.4 52.55 385.68 53.12 385.89 53.72 386.02 54.36 386.02 55.08 385.92 55.84 383.94 65.8 383.94 65.8 383.94 65.8"/><polygon class="cls-3" points="383.17 70.12 383.28 70 384.06 65.82 383.83 65.78 383.06 69.97 383.17 69.85 383.17 70.12 383.26 70.1 383.28 70 383.17 70.12 383.17 70.12 383.17 70.12"/><polygon class="cls-3" points="378.32 69.99 378.43 70.12 383.17 70.12 383.17 69.85 378.43 69.85 378.55 69.99 378.32 69.99 378.3 70.12 378.43 70.12 378.32 69.99 378.32 69.99 378.32 69.99"/><polygon class="cls-3" points="378.62 67.87 378.45 67.72 378.38 68.02 378.36 68.53 378.36 69.21 378.32 69.99 378.55 69.99 378.58 69.21 378.62 68.53 378.6 68.02 378.6 67.87 378.43 67.72 378.62 67.87 378.62 67.87 378.62 67.87"/><polygon class="cls-3" points="371.28 70.29 371.28 70.29 371.81 70.36 372.32 70.42 372.85 70.4 373.39 70.36 373.94 70.29 374.47 70.19 375 70.04 375.53 69.89 376 69.7 376.49 69.48 376.94 69.25 377.34 68.99 377.74 68.72 378.07 68.46 378.38 68.16 378.62 67.87 378.43 67.72 378.19 68 377.92 68.27 377.58 68.53 377.23 68.8 376.83 69.02 376.38 69.25 375.92 69.48 375.45 69.67 374.96 69.82 374.43 69.97 373.9 70.06 373.39 70.14 372.85 70.17 372.32 70.19 371.81 70.14 371.32 70.06 371.32 70.06 371.28 70.29 371.28 70.29 371.28 70.29"/><polygon class="cls-3" points="366.71 64.57 366.71 64.57 366.73 64.99 366.77 65.4 366.83 65.85 366.9 66.29 367 66.7 367.15 67.14 367.32 67.57 367.56 67.97 367.83 68.36 368.13 68.72 368.51 69.08 368.94 69.38 369.43 69.69 369.98 69.93 370.6 70.12 371.28 70.29 371.32 70.06 370.64 69.89 370.06 69.7 369.55 69.46 369.06 69.19 368.66 68.89 368.32 68.57 368.02 68.21 367.75 67.85 367.55 67.46 367.38 67.06 367.23 66.67 367.13 66.25 367.06 65.82 367 65.4 366.96 64.99 366.98 64.57 366.98 64.57 366.71 64.57 366.71 64.57 366.71 64.57"/><polygon class="cls-3" points="373.49 57.33 373.49 57.33 372.83 57.44 372.19 57.61 371.56 57.82 370.96 58.08 370.38 58.38 369.81 58.76 369.3 59.16 368.81 59.61 368.36 60.08 367.96 60.61 367.58 61.17 367.3 61.8 367.06 62.44 366.88 63.12 366.77 63.84 366.71 64.57 366.98 64.57 367 63.84 367.11 63.16 367.28 62.51 367.53 61.87 367.81 61.29 368.15 60.76 368.55 60.23 368.96 59.76 369.45 59.34 369.96 58.95 370.49 58.61 371.07 58.31 371.64 58.04 372.26 57.84 372.87 57.66 373.49 57.55 373.49 57.55 373.49 57.33 373.49 57.33 373.49 57.33"/><polygon class="cls-3" points="377.38 56.93 377.38 56.93 377.17 56.93 376.9 56.97 376.64 56.99 376.34 57 376.02 57.04 375.7 57.06 375.36 57.1 375.04 57.14 374.74 57.17 374.45 57.21 374.19 57.23 373.94 57.27 373.75 57.29 373.6 57.31 373.53 57.33 373.49 57.33 373.49 57.55 373.53 57.55 373.64 57.53 373.75 57.51 373.94 57.49 374.19 57.46 374.45 57.44 374.74 57.4 375.04 57.36 375.36 57.33 375.7 57.29 376.02 57.27 376.34 57.23 376.64 57.21 376.9 57.19 377.17 57.19 377.38 57.19 377.38 57.19 377.38 56.93 377.38 56.93 377.38 56.93"/><polygon class="cls-3" points="379.92 57.14 380.04 57.04 379.96 57.04 379.79 57.02 379.49 57 379.13 56.97 378.72 56.97 378.28 56.97 377.83 56.93 377.38 56.93 377.38 57.19 377.83 57.19 378.28 57.19 378.72 57.23 379.13 57.23 379.49 57.23 379.79 57.25 379.96 57.27 380.04 57.27 380.15 57.17 380.04 57.27 380.13 57.29 380.15 57.17 379.92 57.14 379.92 57.14 379.92 57.14"/><polygon class="cls-3" points="380.11 55.93 380.09 55.93 380.07 56.29 380.02 56.66 379.96 57 379.92 57.14 380.15 57.17 380.19 57.04 380.25 56.7 380.3 56.29 380.36 55.93 380.34 55.93 380.11 55.93 380.11 55.93 380.11 55.93"/><polygon class="cls-3" points="377.87 54.06 377.87 54.08 378.3 54.1 378.7 54.21 379.07 54.38 379.4 54.61 379.66 54.87 379.89 55.19 380.04 55.53 380.11 55.93 380.34 55.93 380.26 55.49 380.11 55.08 379.85 54.72 379.55 54.42 379.19 54.16 378.77 53.98 378.34 53.87 377.87 53.82 377.87 53.83 377.87 54.06 377.87 54.06 377.87 54.06"/><polygon class="cls-3" points="369.77 54.97 369.96 55.08 370.15 54.98 370.39 54.85 370.72 54.74 371.13 54.63 371.58 54.53 372.07 54.44 372.62 54.34 373.17 54.27 373.75 54.19 374.36 54.14 374.96 54.08 375.58 54.04 376.19 54.04 376.77 54.04 377.34 54.04 377.87 54.06 377.87 53.83 377.34 53.82 376.77 53.78 376.19 53.78 375.58 53.82 374.96 53.85 374.36 53.91 373.75 53.97 373.17 54.04 372.58 54.12 372.04 54.21 371.55 54.31 371.09 54.4 370.68 54.51 370.32 54.63 370.04 54.76 369.81 54.89 370 55 369.77 54.97 369.77 54.97 369.77 54.97"/><polygon class="cls-3" points="371.17 50.33 371.09 50.42 369.77 54.97 370 55 371.32 50.46 371.24 50.55 371.17 50.33 371.11 50.34 371.09 50.42 371.17 50.33 371.17 50.33 371.17 50.33"/><polygon class="cls-3" points="379.56 49.46 379.56 49.46 378.92 49.42 378.28 49.4 377.68 49.4 377.09 49.4 376.51 49.4 375.96 49.44 375.41 49.46 374.89 49.49 374.38 49.53 373.87 49.61 373.39 49.68 372.92 49.78 372.47 49.87 372.02 50 371.58 50.16 371.17 50.33 371.24 50.55 371.66 50.38 372.09 50.23 372.51 50.1 372.96 50 373.43 49.91 373.9 49.83 374.38 49.76 374.89 49.72 375.41 49.68 375.96 49.66 376.51 49.66 377.09 49.66 377.68 49.66 378.28 49.66 378.92 49.68 379.56 49.68 379.56 49.68 379.56 49.46 379.56 49.46 379.56 49.46"/><polygon class="cls-3" points="386.04 55.85 386.04 55.85 386.13 55.08 386.13 54.36 386 53.7 385.79 53.08 385.49 52.49 385.11 51.97 384.66 51.49 384.19 51.08 383.64 50.72 383.07 50.38 382.47 50.12 381.89 49.89 381.26 49.72 380.68 49.59 380.09 49.49 379.56 49.46 379.56 49.68 380.09 49.72 380.64 49.81 381.23 49.95 381.81 50.12 382.4 50.34 382.96 50.61 383.53 50.91 384.04 51.27 384.51 51.68 384.92 52.12 385.3 52.61 385.57 53.16 385.77 53.74 385.9 54.36 385.9 55.08 385.81 55.82 385.81 55.82 386.04 55.85 386.04 55.85 386.04 55.85"/><polygon class="cls-3" points="384.06 65.82 384.06 65.82 386.04 55.85 385.81 55.82 383.83 65.78 383.83 65.78 384.06 65.82 384.06 65.82 384.06 65.82"/><polygon class="cls-1" points="379.38 60.87 379.34 60.76 379.26 60.66 379.13 60.61 378.94 60.55 378.74 60.53 378.49 60.51 378.21 60.51 377.92 60.53 377.62 60.57 377.32 60.61 377.02 60.65 376.74 60.68 376.45 60.74 376.21 60.78 375.96 60.84 375.77 60.87 375.64 60.89 375.49 60.95 375.3 61.01 375.09 61.08 374.85 61.19 374.62 61.31 374.36 61.44 374.11 61.61 373.87 61.78 373.62 61.99 373.41 62.19 373.21 62.44 373.04 62.7 372.9 62.99 372.79 63.29 372.74 63.61 372.72 64.25 372.81 64.76 372.96 65.14 373.19 65.42 373.47 65.61 373.79 65.72 374.11 65.78 374.43 65.8 375 65.78 375.53 65.72 376.02 65.63 376.45 65.5 376.87 65.34 377.23 65.17 377.56 64.99 377.87 64.76 378.13 64.55 378.36 64.31 378.56 64.08 378.74 63.84 378.87 63.61 378.96 63.38 379.04 63.16 379.09 62.95 379.17 62.42 379.26 61.87 379.34 61.34 379.38 60.87 379.38 60.87 379.38 60.87"/><polygon class="cls-3" points="418.25 67.4 418.29 66.97 418.44 66.46 418.7 66 419.02 65.61 419.42 65.29 419.87 65.06 420.36 64.91 420.89 64.85 421.42 64.91 421.91 65.06 422.36 65.29 422.76 65.61 423.08 66 423.34 66.46 423.49 66.97 423.53 67.4 422.96 67.4 422.95 67.06 422.83 66.65 422.64 66.27 422.4 65.95 422.1 65.68 421.74 65.5 421.32 65.36 420.89 65.33 420.45 65.36 420.04 65.5 419.68 65.68 419.38 65.95 419.13 66.27 418.95 66.65 418.83 67.06 418.8 67.4 418.25 67.4 418.25 67.4 418.25 67.4"/><polygon class="cls-3" points="419.95 67.4 419.95 66.27 420.98 66.27 421.21 66.29 421.42 66.33 421.57 66.38 421.7 66.46 421.8 66.57 421.87 66.68 421.91 66.82 421.93 66.95 421.91 67.12 421.87 67.25 421.81 67.36 421.78 67.4 420.98 67.4 421.06 67.38 421.19 67.36 421.3 67.33 421.4 67.29 421.47 67.23 421.51 67.17 421.55 67.08 421.55 66.95 421.53 66.85 421.49 66.78 421.44 66.74 421.38 66.7 421.29 66.68 421.19 66.67 421.1 66.67 420.98 66.67 420.42 66.67 420.42 67.4 419.95 67.4 419.95 67.4 419.95 67.4"/><polygon class="cls-3" points="418.25 67.4 418.23 67.52 418.29 68.06 418.44 68.57 418.7 69.02 419.02 69.4 419.42 69.72 419.87 69.97 420.36 70.12 420.89 70.17 421.42 70.12 421.91 69.97 422.36 69.72 422.76 69.4 423.08 69.02 423.34 68.57 423.49 68.06 423.55 67.52 423.53 67.4 422.96 67.4 422.98 67.52 422.95 67.97 422.83 68.38 422.64 68.74 422.4 69.06 422.1 69.33 421.74 69.53 421.32 69.67 420.89 69.7 420.45 69.67 420.04 69.53 419.68 69.33 419.38 69.06 419.13 68.74 418.95 68.38 418.83 67.97 418.8 67.52 418.8 67.4 418.25 67.4 418.25 67.4 418.25 67.4"/><polygon class="cls-3" points="419.95 67.4 419.95 68.55 420.42 68.55 420.42 67.61 420.89 67.61 421.45 68.55 421.83 68.55 421.27 67.61 421.4 67.61 421.53 67.57 421.64 67.53 421.74 67.46 421.78 67.4 420.98 67.4 420.89 67.42 420.42 67.42 420.42 67.4 419.95 67.4 419.95 67.4 419.95 67.4"/><path class="cls-4" d="M459,100.78h0l.06-.55.15-.51.26-.45.32-.4.4-.32.45-.23.49-.15.53-.06h0l.53.06.49.15.45.23.4.32.32.4.26.45.15.51.06.55h0l-.06.55-.15.51-.26.45-.32.38-.4.32-.45.25-.49.15-.53.06h0l-.53-.06-.49-.15-.45-.25-.4-.32-.32-.38-.26-.45-.15-.51-.06-.55m2.19,1h-.47V99.53h1l.23,0,.21,0,.15.06.13.08.09.11.08.11,0,.13,0,.13h0l0,.17,0,.13-.06.11-.08.09-.09.08-.11,0-.13,0h-.13l.57.94h-.38l-.57-.94h-.47v.94m.47-1.13h0l.17,0,.13,0,.11,0,.09,0,.08-.06,0-.06,0-.09v-.13h0l0-.09,0-.08-.06,0-.06,0-.09,0-.09,0h-.77v.75h.47m0,2.28h0l.43,0,.41-.13.36-.21.3-.26.25-.32.19-.36.11-.42,0-.45h0l0-.45-.11-.42-.19-.38-.25-.32-.3-.26-.36-.19-.41-.13-.43,0h0l-.43,0-.42.13-.36.19-.3.26-.25.32-.19.38-.11.42,0,.45h0l0,.45.11.42.19.36.25.32.3.26.36.21.42.13.43,0" transform="translate(-40.79 -33.27)"/><polygon class="cls-3" points="385.36 69.99 390.68 69.99 390.68 69.99 392.59 59.25 392.66 58.84 392.77 58.42 392.89 58 393.04 57.59 393.23 57.17 393.45 56.78 393.7 56.4 394 56.04 394.34 55.72 394.72 55.42 395.15 55.14 395.64 54.91 396.19 54.72 396.79 54.57 397.45 54.46 398.19 54.42 398.45 54.42 398.6 54.42 398.66 54.42 398.66 54.42 399.51 49.57 398.98 49.61 398.47 49.66 398 49.76 397.55 49.89 397.13 50.04 396.74 50.23 396.36 50.44 396 50.66 395.66 50.93 395.34 51.19 395.04 51.49 394.74 51.8 394.45 52.12 394.17 52.48 393.89 52.81 393.62 53.19 394.19 49.78 388.89 49.78 385.36 69.99 385.36 69.99 385.36 69.99 385.36 69.99"/><polyline class="cls-4" points="385.36 69.99 390.68 69.99 390.68 69.99 392.59 59.25 392.59 59.25 392.66 58.84 392.77 58.42 392.89 58 393.04 57.59 393.23 57.17 393.45 56.78 393.7 56.4 394 56.04 394.34 55.72 394.72 55.42 395.15 55.14 395.64 54.91 396.19 54.72 396.79 54.57 397.45 54.46 398.19 54.42 398.19 54.42 398.45 54.42 398.6 54.42 398.66 54.42 398.66 54.42 399.51 49.57 399.51 49.57 398.98 49.61 398.47 49.66 398 49.76 397.55 49.89 397.13 50.04 396.74 50.23 396.36 50.44 396 50.66 395.66 50.93 395.34 51.19 395.04 51.49 394.74 51.8 394.45 52.12 394.17 52.48 393.89 52.81 393.62 53.19 394.19 49.78 388.89 49.78 385.36 69.99 385.36 69.99"/><polygon class="cls-3" points="335.39 69.99 340.71 69.99 340.81 69.99 342.62 59.25 342.69 58.84 342.79 58.44 342.88 58.04 343.01 57.66 343.17 57.29 343.36 56.93 343.58 56.59 343.85 56.27 344.15 55.98 344.49 55.7 344.9 55.48 345.36 55.27 345.88 55.1 346.47 54.95 347.11 54.85 347.85 54.8 347.9 54.8 347.98 54.82 348.07 54.83 348.17 54.83 348.26 54.85 348.34 54.87 348.39 54.89 348.41 54.89 348.43 54.82 348.49 54.59 348.56 54.25 348.66 53.83 348.79 53.34 348.92 52.81 349.09 52.29 349.26 51.76 349.41 51.4 349.6 51.04 349.79 50.68 349.98 50.36 350.15 50.08 350.28 49.85 350.37 49.72 350.41 49.66 350.39 49.66 350.32 49.65 350.22 49.63 350.09 49.61 349.96 49.61 349.81 49.59 349.68 49.57 349.54 49.57 348.96 49.61 348.43 49.66 347.94 49.76 347.49 49.87 347.05 50.02 346.66 50.21 346.3 50.4 345.96 50.63 345.64 50.87 345.34 51.16 345.05 51.44 344.77 51.76 344.49 52.08 344.22 52.44 343.94 52.81 343.66 53.19 344.34 49.78 338.92 49.78 335.39 69.99 335.39 69.99 335.39 69.99 335.39 69.99"/><polyline class="cls-4" points="335.39 69.99 340.71 69.99 340.81 69.99 342.62 59.25 342.62 59.25 342.69 58.84 342.79 58.44 342.88 58.04 343.01 57.66 343.17 57.29 343.36 56.93 343.58 56.59 343.85 56.27 344.15 55.98 344.49 55.7 344.9 55.48 345.36 55.27 345.88 55.1 346.47 54.95 347.11 54.85 347.85 54.8 347.85 54.8 347.9 54.8 347.98 54.82 348.07 54.83 348.17 54.83 348.26 54.85 348.34 54.87 348.39 54.89 348.41 54.89 348.41 54.89 348.43 54.82 348.49 54.59 348.56 54.25 348.66 53.83 348.79 53.34 348.92 52.81 349.09 52.29 349.26 51.76 349.26 51.76 349.41 51.4 349.6 51.04 349.79 50.68 349.98 50.36 350.15 50.08 350.28 49.85 350.37 49.72 350.41 49.66 350.41 49.66 350.39 49.66 350.32 49.65 350.22 49.63 350.09 49.61 349.96 49.61 349.81 49.59 349.68 49.57 349.54 49.57 349.54 49.57 348.96 49.61 348.43 49.66 347.94 49.76 347.49 49.87 347.05 50.02 346.66 50.21 346.3 50.4 345.96 50.63 345.64 50.87 345.34 51.16 345.05 51.44 344.77 51.76 344.49 52.08 344.22 52.44 343.94 52.81 343.66 53.19 344.34 49.78 338.92 49.78 335.39 69.99 335.39 69.99"/><polygon class="cls-5" points="69.54 85.66 79.53 27.03 95.51 27.03 85.51 85.66 69.54 85.66"/><path class="cls-5" d="M184.27,61.74a41.28,41.28,0,0,0-14.32-2.46c-15.79,0-26.91,8-27,19.35-.09,8.42,7.94,13.12,14,15.93,6.22,2.87,8.31,4.71,8.28,7.27,0,3.93-5,5.73-9.56,5.73a33.5,33.5,0,0,1-15-3.08l-2.06-.93-2.24,13.13c3.73,1.64,10.64,3.05,17.8,3.13,16.8,0,27.7-7.86,27.83-20,.06-6.67-4.2-11.75-13.42-15.93-5.59-2.71-9-4.52-9-7.27,0-2.44,2.9-5,9.15-5a29.48,29.48,0,0,1,12,2.25l1.43.68,2.17-12.71" transform="translate(-40.79 -33.27)"/><path class="cls-5" d="M225.25,60.35H212.9c-3.83,0-6.69,1-8.37,4.86L180.8,118.95h16.78s2.74-7.22,3.37-8.81l20.47,0c.48,2.05,1.94,8.79,1.94,8.79h14.83L225.25,60.35M205.54,98.14c1.32-3.38,6.37-16.39,6.37-16.39-.09.16,1.31-3.39,2.12-5.6l1.08,5.06,3.7,16.93Z" transform="translate(-40.79 -33.27)"/><path class="cls-5" d="M96.93,60.34l-15.65,40L79.61,92.2c-2.91-9.37-12-19.51-22.13-24.6l14.31,51.28,16.91,0,25.16-58.52H96.93" transform="translate(-40.79 -33.27)"/><path class="cls-6" d="M66.77,60.3H41l-.2,1.22c20,4.85,33.31,16.58,38.82,30.67L74,65.25c-1-3.71-3.77-4.82-7.24-4.95" transform="translate(-40.79 -33.27)"/><polygon class="cls-7" points="640.84 67.48 665.77 67.48 665.77 74.17 648.47 74.17 648.47 80 665.28 80 665.28 85.89 648.47 85.89 648.47 92.03 665.77 92.03 665.77 98.55 640.84 98.55 640.84 67.48"/><path class="cls-7" d="M754.73,112.85c9.37.48,10.16,5.16,10.16,10.15,0,5.82-4.79,8.94-9.78,8.94h-16v-6.65h12.48c2.12,0,5.27,0,5.27-3,0-1.42-.55-2.32-2.81-2.56-1-.14-4.7-.35-5.27-.36-8.46-.23-10.44-4.44-10.44-9.56,0-5.83,4.09-9,9.09-9h16v6.66H751.7c-2.66,0-5.54-.31-5.54,2.7,0,1.91,1.42,2.29,3.22,2.46C750,112.64,754.17,112.85,754.73,112.85Z" transform="translate(-40.79 -33.27)"/><path class="cls-7" d="M726,112.85c9.37.48,10.16,5.16,10.16,10.15,0,5.82-4.78,8.94-9.78,8.94h-16v-6.65h12.47c2.12,0,5.28,0,5.28-3,0-1.42-.56-2.32-2.81-2.56-1-.14-4.71-.35-5.26-.36-8.48-.23-10.44-4.44-10.44-9.56,0-5.83,4.09-9,9.08-9h16v6.66H723c-2.67,0-5.55-.31-5.55,2.7,0,1.91,1.43,2.29,3.23,2.46C721.3,112.64,725.46,112.85,726,112.85Z" transform="translate(-40.79 -33.27)"/><path class="cls-7" d="M635.6,100.82H608.84l-8.74,9.63-8.45-9.7H561.59v31.07h29.08l9.15-10.26,8.94,10.33H623.4V121.34h10.25c4,0,11.17-.14,11.17-11C644.82,102.55,639.34,100.82,635.6,100.82Zm-48.91,24.47H569.11v-6.14h16.82v-5.89H569.11v-5.83l18.55,0,7.42,8.45Zm29.15,3.6-11-13,11-12.13ZM633,114.94h-9.5v-7.46h9.53c3.19,0,4.2,2,4.2,3.57C637.26,113.14,636.15,114.94,633,114.94Z" transform="translate(-40.79 -33.27)"/><path class="cls-7" d="M672.43,117.74c4.17-2.08,5.27-4.85,5.27-8.61,0-6.65-5.4-8.31-9.15-8.31H648.73v31.06h7.63v-11h10c2.63,0,3.67,2.63,3.74,5.27l.2,5.69h7.42l-.28-6.38C677.43,120.51,676,118.14,672.43,117.74Zm-6.58-3.22h-9.49v-7h9.53c3.19,0,4.19,2,4.19,3.57C670.08,113.13,669,114.52,665.85,114.52Z" transform="translate(-40.79 -33.27)"/><rect class="cls-7" x="610.99" y="13.87" width="7.63" height="31.1"/><polygon class="cls-7" points="548.57 13.9 573.49 13.9 573.49 20.59 556.19 20.59 556.19 26.42 573 26.42 573 32.31 556.19 32.31 556.19 38.44 573.49 38.44 573.49 44.96 548.57 44.96 548.57 13.9"/><path class="cls-7" d="M642.52,64.08c4.17-2.07,5.27-4.85,5.27-8.6,0-6.66-5.41-8.32-9.15-8.32H618.81V78.23h7.63v-11h10c2.63,0,3.68,2.63,3.75,5.26l.21,5.69h7.42l-.27-6.38C647.51,66.85,646.12,64.5,642.52,64.08Zm-6.58-3.21h-9.5v-7H636c3.18,0,4.19,2,4.19,3.57C640.16,59.48,639,60.87,635.93,60.87Z" transform="translate(-40.79 -33.27)"/><path class="cls-7" d="M571.77,47.17,562.41,68l-9.33-20.83h-12V77.08L527.82,47.17H517.73L504.14,78.23h8l3-6.93h15.22l3,6.93h15.35V55.17l10.19,23.05h6.93l10.43-22.67V78.23h7.63V47.17ZM518,64.59l4.55-10.86,4.74,10.86Z" transform="translate(-40.79 -33.27)"/><path class="cls-7" d="M738.1,47.15v21.5l-12.86-21.5H714V76.32L701,47.17H690.89L680.38,71.23s-4.44,0-4.88-.11c-1.83-.38-4.71-1.67-4.75-7.15V61.71c0-7.28,4-7.81,9-7.81h4.71V47.15h-10c-3.47,0-11,2.64-11.26,15.4-.18,8.6,3.57,15.69,12,15.69h10.05l3-6.93h15.22l3,6.93h15V55.5l13.72,22.74h10.4V47.15ZM691.26,64.61l4.54-10.86,4.79,10.86Z" transform="translate(-40.79 -33.27)"/></svg>